<svg id="Layer_1" data-name="Layer 1" xmlns="http://www.w3.org/2000/svg" viewBox="0 0 106.83 96.7"><defs><style>.cls-1,.cls-3{fill:none;stroke-miterlimit:10;}.cls-1{stroke:#000;}.cls-2{fill:#fff;}.cls-3{stroke:#fff;}</style></defs><title>PreReview Logo - Vertical - White</title><path class="cls-1" d="M21.68,140" transform="translate(-54.58 -59.4)"/><path class="cls-2" d="M63,147.72a3.72,3.72,0,0,1-1.24,3,5.2,5.2,0,0,1-3.49,1H57.17V156H54.58V143.9h3.88a4.86,4.86,0,0,1,3.37,1A3.62,3.62,0,0,1,63,147.72Zm-5.85,1.91H58a3,3,0,0,0,1.8-.45,1.8,1.8,0,0,0,.62-1.35,1.53,1.53,0,0,0-.51-1.35,2.26,2.26,0,0,0-1.57-.45H57.17Z" transform="translate(-54.58 -59.4)"/><path class="cls-2" d="M70.27,151.38V156H67.74V143.9h3.54a5.94,5.94,0,0,1,3.65.9,3.61,3.61,0,0,1,.62,4.67,4.25,4.25,0,0,1-1.69,1.29c1.86,2.76,3,4.5,3.6,5.29H74.6l-2.92-4.67Zm0-2.08h.84a3.37,3.37,0,0,0,1.8-.39,1.41,1.41,0,0,0,.56-1.29,1.26,1.26,0,0,0-.62-1.24A4.07,4.07,0,0,0,71,146h-.79Z" transform="translate(-54.58 -59.4)"/><path class="cls-2" d="M88.32,156h-7V143.9h7V146H83.88v2.7H88v2.14h-4.1V154h4.44Z" transform="translate(-54.58 -59.4)"/><path class="cls-2" d="M94.28,150.76V156h-.84V143.9H96.3a5.33,5.33,0,0,1,3.32.84,3.1,3.1,0,0,1,1.07,2.53,3.91,3.91,0,0,1-.62,2.08,3.82,3.82,0,0,1-2,1.24l3.32,5.51h-1l-3.15-5.29h-3v-.06Zm0-.73h2.31a3.54,3.54,0,0,0,2.36-.67,2.49,2.49,0,0,0,.84-2,2.33,2.33,0,0,0-.84-2,4.77,4.77,0,0,0-2.7-.62h-2Z" transform="translate(-54.58 -59.4)"/><path class="cls-2" d="M112.61,156H106V143.9h6.63v.79h-5.79v4.61h5.45v.79h-5.45v5.23h5.79Z" transform="translate(-54.58 -59.4)"/><path class="cls-2" d="M124.92,143.9h.9L121.33,156h-.73L116,143.9h.9l3.09,8.27c.45,1.24.79,2.19,1,2.81.11-.39.34-1.07.67-1.91Z" transform="translate(-54.58 -59.4)"/><path class="cls-2" d="M130,156V143.9h.84V156Z" transform="translate(-54.58 -59.4)"/><path class="cls-2" d="M143.26,156h-6.63V143.9h6.63v.79h-5.79v4.61h5.45v.79h-5.45v5.23h5.79Z" transform="translate(-54.58 -59.4)"/><path class="cls-2" d="M158.1,156h-.67l-2.7-9.39c-.22-.79-.39-1.41-.51-1.91-.11.51-.22,1.07-.39,1.69s-1.07,3.82-2.7,9.62h-.73L147,143.9h.9l2.14,7.82.22.9a2.78,2.78,0,0,0,.22.73,3,3,0,0,1,.17.67,2.82,2.82,0,0,1,.11.67,28.85,28.85,0,0,1,.84-3.43l2.08-7.37h1l2.42,8.43c.28,1,.51,1.74.62,2.36.06-.39.17-.84.28-1.29s1-3.65,2.59-9.56h.84Z" transform="translate(-54.58 -59.4)"/><path class="cls-3" d="M122.57,121.6H84.11a1.88,1.88,0,0,1-1.82-1.82h0V61.72a1.88,1.88,0,0,1,1.82-1.82h47.77a1.88,1.88,0,0,1,1.82,1.82h0v58.05" transform="translate(-54.58 -59.4)"/><polyline class="cls-2" points="63.7 66.27 70.66 62.2 63.7 58.13"/><line class="cls-3" x1="39.17" y1="16.46" x2="67.98" y2="16.46"/><line class="cls-3" x1="39.17" y1="31.56" x2="67.98" y2="31.56"/><line class="cls-3" x1="39.17" y1="46.77" x2="67.98" y2="46.77"/></svg>