<?xml version="1.0" encoding="utf-8"?>
<!-- Generator: Adobe Illustrator 24.3.0, SVG Export Plug-In . SVG Version: 6.00 Build 0)  -->
<svg version="1.1" id="Layer_1" xmlns="http://www.w3.org/2000/svg" xmlns:xlink="http://www.w3.org/1999/xlink" x="0px" y="0px"
	 viewBox="0 0 242.45 210.57" style="enable-background:new 0 0 242.45 210.57;" xml:space="preserve">
<style type="text/css">
	.st0{fill:#E3EBF6;}
	.st1{fill:#29180D;}
	.st2{fill:#845C32;}
	.st3{fill:#D63633;}
	.st4{fill:#010101;}
	.st5{fill:#C09D76;}
	.st6{fill:#EF3E3F;}
	.st7{fill:#D7AE82;}
	.st8{fill:#6F4D28;}
	.st9{fill:#A27040;}
	.st10{fill:none;stroke:#EF3D39;stroke-width:1.5;stroke-miterlimit:10;}
	.st11{fill:#AE8046;}
	.st12{fill:#55958E;}
	.st13{fill:#D23532;}
	.st14{fill:#EF3D39;}
	.st15{fill:#D2D0CE;}
	.st16{opacity:0.5;fill:#B77F4A;}
</style>
<g>
	<ellipse class="st0" cx="160.13" cy="37.88" rx="53.5" ry="37.88"/>
	<polygon class="st0" points="107.29,74.25 132.02,67.62 113.92,49.52 	"/>
</g>
<path class="st1" d="M214,75.48c0.31-1.38,0.1-2.9-0.64-4.09c1.14-2.95-0.34-7.02-4.46-7.02c-4.51,0-5.86,4.9-4.05,7.84
	c-0.22,0.57-0.34,1.18-0.37,1.8c-3.61,0.79-4.54,5.19-2.8,7.84c-0.03,0.28-0.04,0.57-0.03,0.86c-0.16,0.16-0.31,0.34-0.44,0.52
	c-0.2-0.02-0.4-0.03-0.61-0.03c-6.43,0-6.45,10,0,10c1.78,0,3.06-0.76,3.86-1.87c0.2,0.02,0.39,0.05,0.6,0.05
	c3.3,0,4.9-2.62,4.82-5.18c0.81-0.82,1.28-1.94,1.39-3.09C214.66,82.22,215.57,78.1,214,75.48z"/>
<path class="st1" d="M159.99,69.51c-0.39-2.1-1.97-3.93-4.73-3.93c-5.09,0-6.15,6.26-3.17,8.87c-1.6,2.96-0.21,7.61,4.18,7.61
	c3.44,0,5.04-2.86,4.8-5.53C162.46,74.37,162.11,71.08,159.99,69.51z"/>
<g>
	<path class="st2" d="M236.14,146.76c-1.12-1.29-2.3-2.55-3.49-3.8c-5.2-5.49-11.47-10.05-18.94-11.79
		c-11.16-2.59-15.92,13.75-4.75,16.34c5.69,1.32,9.43,5.38,13.01,9.56c1.41,1.64,2.64,2.51,2.13,4.55
		c-0.48,1.92-2.84,3.86-4.35,4.95c-10.68,7.71-25.27,5.61-37.56,7.67c-4.75,0.8-7.43,6.31-6.24,10.42
		c1.38,4.76,6.22,6.72,10.98,5.92c11.18-1.87,22.79-1.93,33.63-5.55c10.24-3.43,21.81-12.17,21.88-24.01
		C242.49,155.23,239.66,150.82,236.14,146.76z"/>
</g>
<path class="st3" d="M76.29,163.55c7.01,1.09,13.89-0.14,20.39-3.99c0,0,0,0,0.01,0c1.43-5.9-2.46-15.58-3.95-20.09
	c-0.49-1.49,0.06-2.88,0.86-3.54c-0.08-0.4-0.14-0.82-0.18-1.27c-0.27-2.99-0.19-6.16-0.13-9.27c-0.19-2.37-0.23-4.78-0.13-7.24
	c-1.47-1.34-2.99-2.57-4.56-3.65c-2.15-1.48-0.26-5.93,1.89-4.45c13.35,9.22,25.09,29.34,25.13,50.71
	c0.06,27.84-26.68,23.39-39.73,18.33c-0.8-0.31-1.36-1.35-1.37-2.48c-0.03-3.5-0.07-6.99-0.1-10.49
	C74.41,164.84,75.29,163.39,76.29,163.55z"/>
<path class="st4" d="M81.38,34.47c-9.63-5.09-21.74-3.82-30.88,1.7c-8.32,5.02-14.07,13.06-18.06,21.76
	c-3.93,8.56-6.32,17.72-8.52,26.84c-1.58,6.55-2.82,13.19-3.77,19.86c-2.06,14.56-3.06,30.11-9.4,43.62
	c-3.01,6.4-9.39,11.82-10.61,19.02c-0.77,4.56,1.7,10.79,7.1,8.33c2.8-1.27,4.28-4.71,5.92-7.2c2.75-4.18,5.69-8.25,9.17-11.82
	c7.42-7.61,15.89-9.78,26.15-10.48c8.17-0.56,16.48-1.25,23.28-6.33c14.12-10.56,16.28-30.81,19.7-47.23
	c1.34-6.45,3.04-12.83,3.86-19.38c0.95-7.59-0.26-15.43-2.01-22.83C91.8,44,87.84,38.19,82.15,34.9
	C81.9,34.76,81.64,34.61,81.38,34.47z"/>
<rect x="56.09" y="97.2" class="st5" width="24.57" height="30.13"/>
<path class="st6" d="M103.58,128.23c-0.92-10.96-7.9-19.48-16.38-19.48h-6.59c0.08,0.18,0.14,0.37,0.14,0.55
	c0,2.14-5.6,3.88-12.51,3.88s-12.51-1.74-12.51-3.88c0-0.19,0.06-0.37,0.14-0.55h-4.81c-8.54,0-15.56,8.65-16.39,19.72
	c-0.1,1.29-0.03,2.59,0.16,3.86l8.6,58.42h49.54l10.36-58.13C103.59,131.19,103.7,129.7,103.58,128.23z"/>
<path class="st7" d="M91.83,71.92c-1.31,19.2-16.55,41.25-29.54,32.92c-15.61-9.99-26.12-17.42-24.81-36.62
	C38.78,49.02,52,34.27,67.02,35.29S93.14,52.71,91.83,71.92z"/>
<g>
	<g>
		<path class="st4" d="M64.26,70.99c-0.12,0.27-0.21,0.53-0.26,0.82c-0.05,0.33-0.06,0.63-0.01,0.96c0.08,0.62,0.33,1.16,0.72,1.64
			c0.1,0.12,0.28,0.19,0.43,0.21c0.17,0.02,0.33,0,0.48-0.09c0.89-0.5,0.95-1.57,0.78-2.46c-0.09-0.48-0.25-1.02-0.7-1.29
			c-0.39-0.23-0.87-0.16-1.19,0.14c-0.3,0.28-0.43,0.8-0.17,1.15c0.12,0.16,0.24,0.29,0.45,0.34c0.18,0.05,0.42,0.03,0.58-0.08
			c0.16-0.1,0.3-0.26,0.34-0.45c0.04-0.18,0.04-0.42-0.08-0.58c-0.01-0.01-0.02-0.03-0.03-0.04c0.03,0.06,0.05,0.12,0.08,0.18
			c0-0.01,0-0.02-0.01-0.02c0.01,0.07,0.02,0.13,0.03,0.2c0-0.02,0-0.03,0-0.05c-0.01,0.07-0.02,0.13-0.03,0.2
			c0-0.01,0-0.02,0.01-0.02c-0.03,0.06-0.05,0.12-0.08,0.18c0.03-0.08,0.07-0.05-0.06,0.06c-0.04,0.03-0.07,0.05-0.11,0.08
			c0.02-0.01,0.03-0.02,0.05-0.03c-0.06,0.03-0.12,0.05-0.18,0.08c0.02-0.01,0.04-0.01,0.05-0.02c-0.07,0.01-0.13,0.02-0.2,0.03
			c0.02,0,0.04,0,0.06,0c-0.07-0.01-0.13-0.02-0.2-0.03c0.02,0,0.04,0.01,0.05,0.01c-0.06-0.03-0.12-0.05-0.18-0.08
			c0,0,0.06,0.03,0.06,0.03c-0.03-0.03-0.07-0.05-0.1-0.08c0.04,0.04,0.03,0.03-0.02-0.03c-0.09-0.11,0.01,0.03,0.02,0.07
			c-0.03-0.06-0.05-0.12-0.08-0.18c0.1,0.26,0.16,0.54,0.2,0.81c-0.01-0.07-0.02-0.13-0.03-0.2c0.03,0.21,0.04,0.41,0.01,0.62
			c0.01-0.07,0.02-0.13,0.03-0.2c-0.02,0.12-0.05,0.24-0.09,0.35c0.03-0.06,0.05-0.12,0.08-0.18c-0.02,0.04-0.04,0.08-0.06,0.12
			c-0.01,0.02-0.02,0.03-0.03,0.05c-0.03,0.06,0.14-0.15,0.06-0.07c-0.01,0.01-0.08,0.07-0.08,0.08c0-0.02,0.18-0.12,0.07-0.05
			c-0.02,0.01-0.04,0.03-0.07,0.04c0.3,0.04,0.61,0.08,0.91,0.12c-0.07-0.08,0.05,0.06,0.05,0.06c0,0-0.04-0.06-0.04-0.06
			c-0.03-0.05-0.06-0.09-0.09-0.14c-0.05-0.09-0.1-0.19-0.14-0.29c0.03,0.06,0.05,0.12,0.08,0.18c-0.08-0.2-0.14-0.41-0.17-0.62
			c0.01,0.07,0.02,0.13,0.03,0.2c-0.03-0.21-0.03-0.43,0-0.64c-0.01,0.07-0.02,0.13-0.03,0.2c0.03-0.21,0.08-0.42,0.17-0.62
			c-0.03,0.06-0.05,0.12-0.08,0.18c0.01-0.01,0.01-0.02,0.02-0.03c0.08-0.19,0.13-0.37,0.08-0.58c-0.05-0.17-0.18-0.36-0.34-0.45
			c-0.17-0.09-0.38-0.14-0.58-0.08C64.54,70.7,64.34,70.82,64.26,70.99L64.26,70.99z"/>
	</g>
</g>
<g>
	<g>
		<path class="st4" d="M83.53,70.8c-0.28,1.11-0.25,2.3,0.11,3.39c0.18,0.54,0.83,0.74,1.25,0.33c0.55-0.53,0.84-1.26,0.89-2.02
			c0.05-0.77-0.22-1.5-0.69-2.09c-0.11-0.14-0.36-0.22-0.53-0.22c-0.18,0-0.4,0.08-0.53,0.22c-0.13,0.14-0.23,0.33-0.22,0.53
			c0.01,0.21,0.09,0.37,0.22,0.53c-0.03-0.04-0.1-0.13-0.03-0.04c0.02,0.03,0.04,0.06,0.06,0.09c0.03,0.05,0.06,0.11,0.09,0.16
			c0.02,0.03,0.03,0.06,0.04,0.09c-0.01-0.02-0.06-0.16-0.03-0.07c0.02,0.06,0.04,0.12,0.06,0.18c0.02,0.07,0.03,0.13,0.05,0.2
			c0.01,0.03,0.01,0.05,0.01,0.08c0.02,0.09-0.02-0.19-0.01-0.06c0.01,0.13,0.01,0.26,0.01,0.39c0,0.03,0,0.06-0.01,0.08
			c-0.01,0.13,0-0.01,0.01-0.06c-0.02,0.06-0.02,0.12-0.04,0.18c-0.01,0.06-0.03,0.12-0.05,0.18c-0.01,0.03-0.02,0.07-0.03,0.1
			c-0.04,0.11,0,0,0.02-0.05c-0.06,0.11-0.11,0.22-0.18,0.32c-0.01,0.02-0.1,0.13-0.01,0.02c0.08-0.1-0.01,0.01-0.02,0.02
			c-0.04,0.05-0.09,0.1-0.14,0.15c0.42,0.11,0.84,0.22,1.25,0.33c-0.08-0.23-0.14-0.47-0.18-0.71c-0.01-0.06-0.02-0.11-0.03-0.17
			c-0.03-0.16,0.02,0.15-0.01-0.05c-0.01-0.12-0.02-0.24-0.03-0.36c-0.01-0.24,0-0.49,0.02-0.73c0-0.02,0-0.04,0.01-0.06
			c0.01-0.09,0.01-0.07-0.01,0.03c0.02-0.04,0.02-0.12,0.03-0.17c0.02-0.13,0.05-0.26,0.08-0.38c0.09-0.38-0.12-0.83-0.52-0.92
			C84.06,70.19,83.63,70.4,83.53,70.8L83.53,70.8z"/>
	</g>
</g>
<g>
	<g>
		<path class="st4" d="M70.74,94.68c1.11,0.09,2.19,0.48,3.32,0.43c1.14-0.06,2.23-0.44,3.36-0.57c0.38-0.05,0.38-0.65,0-0.6
			c-1.13,0.13-2.22,0.52-3.36,0.57c-1.12,0.06-2.2-0.34-3.32-0.43C70.35,94.05,70.35,94.65,70.74,94.68L70.74,94.68z"/>
	</g>
</g>
<path class="st4" d="M37.78,61.23c0.07-14.7,12.39-26.55,27.52-26.47S92.63,46.8,92.56,61.5"/>
<rect x="167.45" y="102.2" transform="matrix(-1 -4.472124e-11 4.472124e-11 -1 359.4578 234.5292)" class="st8" width="24.57" height="30.13"/>
<path class="st2" d="M156.46,80.65c1.1,16.16,14.85,34.64,26.69,27.58c14.23-8.48,23.81-14.78,22.71-30.94s-13.05-28.51-26.69-27.58
	C165.53,50.64,155.36,64.49,156.46,80.65z"/>
<g>
	<g>
		<path class="st4" d="M182.44,80.22c0.01,0.01,0.01,0.02,0.02,0.04c-0.03-0.06-0.05-0.12-0.08-0.18c0.09,0.22,0.15,0.45,0.19,0.68
			c-0.01-0.07-0.02-0.13-0.03-0.2c0.03,0.24,0.03,0.49,0,0.73c0.01-0.07,0.02-0.13,0.03-0.2c-0.03,0.21-0.08,0.42-0.17,0.61
			c0.03-0.06,0.05-0.12,0.08-0.18c-0.06,0.15-0.14,0.28-0.23,0.41c0.34-0.09,0.68-0.18,1.03-0.27c-0.02-0.01-0.03-0.02-0.05-0.03
			c0.18,0.1,0.12,0.1,0.07,0.05c-0.06-0.06-0.12-0.17,0.01,0.03c-0.05-0.08-0.1-0.15-0.13-0.24c0.03,0.06,0.05,0.12,0.08,0.18
			c-0.05-0.13-0.08-0.26-0.1-0.4c0.01,0.07,0.02,0.13,0.03,0.2c-0.03-0.26-0.02-0.52,0.01-0.78c-0.01,0.07-0.02,0.13-0.03,0.2
			c0.03-0.21,0.06-0.43,0.14-0.63c-0.03,0.06-0.05,0.12-0.08,0.18c0.01-0.03,0.09-0.15,0.01-0.04c-0.05,0.06-0.05,0.07-0.02,0.03
			c-0.12,0.08-0.14,0.1-0.07,0.07c-0.06,0.03-0.12,0.05-0.18,0.08c0.02-0.01,0.03-0.01,0.05-0.01c-0.07,0.01-0.13,0.02-0.2,0.03
			c0.01,0,0.02,0,0.03,0c-0.07-0.01-0.13-0.02-0.2-0.03c0.03,0,0.05,0.01,0.08,0.02c-0.06-0.03-0.12-0.05-0.18-0.08
			c0.1,0.05-0.14-0.13-0.06-0.05c-0.02-0.03-0.11-0.17-0.06-0.06c-0.03-0.06-0.05-0.12-0.08-0.18c0.01,0.02,0.01,0.03,0.01,0.05
			c-0.01-0.07-0.02-0.13-0.03-0.2c0,0.01,0,0.02,0,0.02c0.01-0.07,0.02-0.13,0.03-0.2c0,0.02-0.01,0.03-0.01,0.05
			c0.03-0.06,0.05-0.12,0.08-0.18c0,0.01-0.01,0.01-0.01,0.02c-0.22,0.33-0.08,0.84,0.27,1.03c0.37,0.2,0.8,0.08,1.03-0.27
			c0.24-0.37,0.13-0.86-0.18-1.16c-0.31-0.3-0.78-0.38-1.15-0.16c-0.45,0.26-0.57,0.79-0.63,1.27c-0.06,0.45-0.08,0.89,0.01,1.33
			c0.1,0.48,0.38,0.88,0.79,1.15c0.15,0.1,0.41,0.13,0.58,0.08c0.2-0.06,0.33-0.18,0.45-0.34c0.32-0.45,0.47-1.01,0.51-1.56
			c0.05-0.58-0.09-1.15-0.32-1.68c-0.07-0.16-0.29-0.3-0.45-0.34c-0.18-0.05-0.42-0.03-0.58,0.08c-0.16,0.1-0.3,0.26-0.34,0.45
			C182.32,79.85,182.35,80.02,182.44,80.22L182.44,80.22z"/>
	</g>
</g>
<g>
	<g>
		<path class="st4" d="M161.07,80.25c0.05,0.19,0.09,0.38,0.11,0.57c-0.01-0.07-0.02-0.13-0.03-0.2c0.05,0.38,0.05,0.76,0,1.14
			c0.01-0.07,0.02-0.13,0.03-0.2c-0.02,0.16-0.05,0.31-0.09,0.47c0.42-0.11,0.84-0.22,1.25-0.33c-0.04-0.04-0.07-0.08-0.1-0.12
			c0.04,0.05,0.08,0.1,0.12,0.15c-0.1-0.12-0.17-0.26-0.24-0.4c0.03,0.06,0.05,0.12,0.08,0.18c-0.07-0.17-0.12-0.35-0.15-0.54
			c0.01,0.07,0.02,0.13,0.03,0.2c-0.02-0.16-0.02-0.33,0-0.49c-0.01,0.07-0.02,0.13-0.03,0.2c0.02-0.15,0.06-0.29,0.11-0.43
			c-0.03,0.06-0.05,0.12-0.08,0.18c0.04-0.09,0.08-0.17,0.14-0.25c0.11-0.15,0.12-0.4,0.08-0.58c-0.05-0.17-0.18-0.36-0.34-0.45
			c-0.17-0.09-0.38-0.14-0.58-0.08c-0.19,0.06-0.33,0.18-0.45,0.34c-0.3,0.43-0.41,1.01-0.36,1.52c0.06,0.61,0.28,1.17,0.71,1.62
			c0.38,0.41,1.12,0.2,1.25-0.33c0.22-0.84,0.2-1.73-0.02-2.57c-0.1-0.38-0.54-0.65-0.92-0.52
			C161.21,79.45,160.97,79.84,161.07,80.25L161.07,80.25z"/>
	</g>
</g>
<path class="st9" d="M175.06,84.48l1.19,4.88c0.21,0.85-0.47,1.65-1.34,1.59l-3.05-0.21c-0.87-0.06-1.43-0.95-1.11-1.76l1.86-4.67
	C173.08,83.14,174.77,83.26,175.06,84.48z"/>
<g>
	<g>
		<path class="st4" d="M177.17,98.08c-0.59,0.05-1.12,0.33-1.63,0.6c-0.54,0.29-1.12,0.68-1.74,0.76c-0.61,0.08-1.13-0.33-1.59-0.67
			c-0.5-0.37-1.01-0.74-1.64-0.83c-0.38-0.05-0.54,0.53-0.16,0.58c1.25,0.17,1.98,1.6,3.32,1.52c0.6-0.04,1.17-0.35,1.69-0.62
			c0.54-0.29,1.12-0.69,1.74-0.74C177.55,98.65,177.55,98.05,177.17,98.08L177.17,98.08z"/>
	</g>
</g>
<ellipse class="st10" cx="161.42" cy="81.16" rx="6.2" ry="5.6"/>
<ellipse class="st10" cx="183.42" cy="80.67" rx="6.2" ry="5.6"/>
<path class="st10" d="M167.63,79.9c0,0,3.6-1.38,4.81-1.38c1.35,0,5.4,1.38,5.4,1.38"/>
<path class="st11" d="M178.1,182.57L178.1,182.57c-2.92-1.55-4.04-5.21-2.49-8.13l0.68-1.29c1.55-2.92,5.21-4.04,8.13-2.49h0
	c2.92,1.55,4.04,5.21,2.49,8.13l-0.68,1.29C184.68,183.01,181.02,184.12,178.1,182.57z"/>
<polygon class="st12" points="205.91,118.16 190.42,135.63 218.56,160.1 232.8,135.2 209.68,120.47 "/>
<path class="st12" d="M214.63,198.75l-0.29-59.13c0.25-1.44,0.36-2.92,0.24-4.39c-0.9-10.96-7.78-19.48-16.14-19.48h-6.49
	c0.08,0.18,0.14,0.37,0.14,0.55c0,2.14-5.52,3.88-12.33,3.88s-12.33-1.74-12.33-3.88c0-0.19,0.06-0.37,0.14-0.55c0,0-4.74,0-4.74,0
	c-8.7,0-13.55,9.61-18.55,15.45c-0.82,0.96-11.75,13.54-11.66,13.63c0,0,14.46,13.61,14.46,13.61l0.52,39.3L214.63,198.75z"/>
<rect x="55.7" y="136.52" class="st0" width="40.93" height="50.33"/>
<path class="st7" d="M62.1,178.57L62.1,178.57c-2.92-1.55-4.04-5.21-2.49-8.13l0.68-1.29c1.55-2.92,5.21-4.04,8.13-2.49h0
	c2.92,1.55,4.04,5.21,2.49,8.13l-0.68,1.29C68.68,179.01,65.02,180.12,62.1,178.57z"/>
<path class="st13" d="M61.22,165.39c-8.48,1.11-16.8-0.14-24.68-4.04c-1.73-5.98,2.98-15.79,4.78-20.36
	c0.59-1.51-0.07-2.92-1.04-3.59c0.09-0.41,0.17-0.83,0.22-1.29c0.33-3.03,0.23-6.24,0.15-9.39c0.23-2.41,0.28-4.85,0.16-7.33
	c1.78-1.36,3.62-2.6,5.51-3.7c2.6-1.5,0.32-6.01-2.28-4.51c-16.16,9.34-30.35,29.73-30.41,51.39c-0.02,7.09,2.3,14.13,8.44,18.18
	c5.48,3.62,12.43,4.38,18.84,4.18c6.7-0.21,13.33-1.56,19.74-3.41c1.45-0.42,2.7-1.26,2.72-2.9c0.04-3.54,0.08-7.09,0.12-10.63
	C63.49,166.7,62.43,165.23,61.22,165.39z"/>
<path class="st14" d="M44.73,110.68c-17.91,2.5-11.18,26.78-7.41,37.66c2.1,6.04,11.76,3.44,9.64-2.66
	c-1.91-5.5-9.28-24.01,0.42-25.36C53.74,119.44,51.04,109.8,44.73,110.68z"/>
<path class="st1" d="M215.31,61.38c1.98-1.95,1.76-5.58-0.77-7.13c-0.1-2-1.45-3.92-4.08-4.26c0.05-2.26-1.48-4.56-4.66-4.67
	c-0.1,0-0.19,0.01-0.29,0.01c-0.42-0.97-1.18-1.79-2.29-2.27c0.14-2.32-1.37-4.75-4.65-4.87c-1.25-0.05-2.27,0.27-3.05,0.8
	c-0.72-1.2-2.04-2.1-3.99-2.17c-0.57-0.02-1.09,0.03-1.56,0.15c-0.77-0.82-1.92-1.39-3.46-1.45c-0.95-0.03-1.77,0.14-2.45,0.46
	c-0.66-0.37-1.46-0.6-2.41-0.63c-1.74-0.06-3.02,0.56-3.86,1.5c-0.16-0.02-0.32-0.03-0.49-0.04c-0.75-0.03-1.42,0.08-2,0.28
	c-0.73-1.18-2.04-2.05-3.97-2.12c-3.51-0.13-5.21,2.54-4.97,5.04c-0.59-0.27-1.28-0.44-2.08-0.47c-2.84-0.1-4.49,1.62-4.9,3.6
	c-1.34,0.98-1.94,2.62-1.79,4.18c-3.43,0.27-4.82,3.43-4.05,5.96c-1.69,0.64-2.64,2.12-2.83,3.7c-2.69,2.32-1.91,7.52,2.65,8.01
	c0.34,1.91,1.84,3.61,4.57,3.71c2.77,0.1,4.41-1.54,4.86-3.46c0.35,0.08,0.73,0.14,1.13,0.15c2.21,0.08,3.71-0.95,4.45-2.35
	c0.34,0.08,0.71,0.13,1.1,0.14c1.38,0.05,2.48-0.33,3.3-0.97c0.65,0.36,1.45,0.59,2.39,0.62c1.31,0.05,2.37-0.3,3.17-0.88
	c0.76,0.64,1.78,1.06,3.1,1.11c1.25,0.05,2.26-0.26,3.05-0.79c0.77,0.8,1.9,1.35,3.41,1.4c1.44,0.05,2.57-0.37,3.39-1.05
	c0.54,0.94,1.44,1.7,2.72,2.05c0.63,1.47,2.04,2.64,4.29,2.72c0.08,0,0.15-0.01,0.24-0.01c-0.12,2.31,1.4,4.71,4.65,4.83
	c0.12,0,0.23,0,0.35,0c0.77,0.82,1.92,1.38,3.45,1.44c3.25,0.12,4.93-2.16,4.98-4.47C216.62,69.08,217.83,63.91,215.31,61.38z"/>
<rect x="128.7" y="133.52" class="st0" width="40.93" height="50.33"/>
<g>
	<g>
		<path class="st2" d="M215.63,136.27c-0.03,0.46-0.04,0.91,0,1.37V136.27z"/>
	</g>
	<g>
		<path class="st2" d="M215.63,169.26c-6.94,0.87-14.18,0.93-20.43,1.98c-4.75,0.8-7.43,6.31-6.24,10.42
			c1.38,4.76,6.22,6.72,10.98,5.92c5.07-0.85,10.39-1.35,15.68-2V169.26z"/>
	</g>
</g>
<path class="st15" d="M227.99,210.57h-201c-6.6,0-12-5.4-12-12v-3.44c0-6.6,5.4-12,12-12h201c6.6,0,12,5.4,12,12v3.44
	C239.99,205.17,234.59,210.57,227.99,210.57z"/>
<ellipse transform="matrix(0.9616 -0.2746 0.2746 0.9616 -29.4992 16.7624)" class="st14" cx="45.13" cy="113.75" rx="8.5" ry="4"/>
<path class="st16" d="M73.48,80.91l-1.86,2.3c-0.71,0.88-0.03,2.18,1.09,2.1l4.03-0.28c1.12-0.08,1.61-1.46,0.79-2.23l-2.16-2.01
	C74.81,80.27,73.95,80.33,73.48,80.91z"/>
</svg>
