<?xml version="1.0" encoding="utf-8"?>
<!-- Generator: Adobe Illustrator 24.3.0, SVG Export Plug-In . SVG Version: 6.00 Build 0)  -->
<svg version="1.1" id="Layer_1" xmlns="http://www.w3.org/2000/svg" xmlns:xlink="http://www.w3.org/1999/xlink" x="0px" y="0px"
	 viewBox="0 0 117.88 217.95" style="enable-background:new 0 0 117.88 217.95;" xml:space="preserve">
<style type="text/css">
	.st0{fill:#7AB76E;}
	.st1{fill:#446F40;}
	.st2{fill:#845C32;}
	.st3{fill:#29180D;}
	.st4{fill:#FAE79C;}
	.st5{fill:#6F4D28;}
	.st6{fill:#303030;}
	.st7{fill:#010101;}
	.st8{fill:#A27040;}
	.st9{fill:none;stroke:#303030;stroke-width:4;stroke-miterlimit:10;}
	.st10{fill:#F7CC1A;}
</style>
<path class="st0" d="M111.98,47.45c-0.95-2.51-3.98-1.06-3.03,1.47c2.74,7.26,6.87,18.63,4.38,26.39c-0.8,2.49,2.25,4.33,3.05,1.85
	C119.26,68.19,115.16,55.88,111.98,47.45z"/>
<path class="st1" d="M115.57,45.1l-3.01,7.53l-8.21-3.28c-16.5-6.6-24.53-25.32-17.93-41.82L89.43,0l8.21,3.28
	C114.14,9.88,122.17,28.6,115.57,45.1z"/>
<path class="st2" d="M105.27,69.68l-0.78-0.78c-2.5-1.85-2.67-5.91-0.38-9.01l1.84-2.49c2.3-3.1,6.22-4.13,8.73-2.28l0.8,0.59
	c2.5,1.85,2.67,5.91,0.38,9.01l-1.84,2.49C111.72,70.32,107.78,71.53,105.27,69.68z"/>
<path class="st3" d="M18.04,80.01c-1.37-2.1-3.89-3.4-6.9-2.17c-5.54,2.27-3.89,9.55,0.51,11.06c-0.42,3.93,3.17,8.37,7.95,6.41
	c3.74-1.54,4.21-5.37,2.76-8.15C22.91,84.18,21.05,80.77,18.04,80.01z"/>
<path class="st4" d="M109.42,63.85c-1.67-1.54-5.32-6.51-7.56-3.29c-1.25,1.79-2.45,3.59-3.85,5.27c-4.15,5-9.17,9.18-13.39,14.11
	C80.02,85.3,76,91.23,71.71,96.83c-0.23,0.3-0.46,0.61-0.7,0.92c-1.83,1.97-3.67,3.94-5.51,5.89c-3.89,4.12-7.94,8.12-12.88,10.68
	c-4.18,1.15-8.51,1.67-12.6,3.1c-4.62,1.61-8.17,4.67-10.51,8.58c-0.41,0.3-0.82,0.6-1.22,0.92c-4.01,3.15-5.44,6.77-4.79,11.15
	l-0.1,0.01l3.95,56.6l62.34-5.8l-6.77-47.28c3.73-10.42,7.45-20.85,11.18-31.27c4.9-13.71,8.76-29.18,18.61-40.32
	c0.53-0.59,1.96-1.26,1.8-2.09C114.15,65.99,110.73,65.06,109.42,63.85z"/>
<rect x="30.4" y="101.17" class="st5" width="26.3" height="22.4"/>
<path class="st3" d="M63.46,52.69c-0.84-2.36-3.01-4.2-6.21-3.7c-5.91,0.94-5.99,8.39-2.06,10.88c-1.32,3.73,1.15,8.87,6.25,8.07
	c4-0.63,5.33-4.25,4.56-7.3C67.22,57.88,66.21,54.13,63.46,52.69z"/>
<polygon class="st6" points="92.46,209.99 31.36,217.95 27.34,190 88.44,182.04 "/>
<path class="st2" d="M63.63,68.49c7.42,16.35,4.64,41.19-9.71,40.11c-17.24-1.31-29.16-2.76-36.57-19.11s-3.07-34.31,9.71-40.11
	S56.21,52.14,63.63,68.49z"/>
<g>
	<g>
		<path class="st7" d="M45.75,73.24c-0.05,1.15,0.59,2.29,1.59,2.86c0.15,0.08,0.31,0.11,0.48,0.09c0.15-0.02,0.33-0.08,0.43-0.21
			c0.18-0.22,0.33-0.46,0.39-0.74c0.05-0.28,0.04-0.54-0.01-0.83c-0.08-0.4-0.29-0.8-0.52-1.14c-0.13-0.19-0.26-0.39-0.42-0.54
			c-0.28-0.27-0.66-0.42-1.04-0.33c-0.35,0.08-0.61,0.36-0.72,0.69c-0.13,0.41,0.04,0.84,0.4,1.06c0.34,0.2,0.84,0.08,1.03-0.27
			c0.19-0.36,0.09-0.81-0.27-1.03c-0.01,0-0.01-0.01-0.02-0.01c0.05,0.04,0.1,0.08,0.15,0.12c-0.01-0.01-0.02-0.02-0.03-0.03
			c0.04,0.05,0.08,0.1,0.12,0.15c0-0.01-0.01-0.01-0.01-0.02c0.03,0.06,0.05,0.12,0.08,0.18c-0.01-0.01-0.01-0.03-0.01-0.04
			c0.01,0.07,0.02,0.13,0.03,0.2c0-0.01,0-0.03,0-0.04c-0.01,0.07-0.02,0.13-0.03,0.2c0-0.02,0.01-0.04,0.02-0.07
			c-0.03,0.06-0.05,0.12-0.08,0.18c0.01-0.02,0.02-0.04,0.04-0.06c-0.04,0.05-0.08,0.1-0.12,0.15c0.02-0.02,0.03-0.04,0.05-0.05
			c-0.05,0.04-0.1,0.08-0.15,0.12c0.02-0.02,0.04-0.03,0.06-0.04c-0.06,0.03-0.12,0.05-0.18,0.08c0.02-0.01,0.03-0.01,0.05-0.01
			c-0.07,0.01-0.13,0.02-0.2,0.03c0.02,0,0.04,0,0.06,0c-0.07-0.01-0.13-0.02-0.2-0.03c0.03,0.01,0.06,0.01,0.09,0.03
			c-0.06-0.03-0.12-0.05-0.18-0.08c0.04,0.02,0.08,0.04,0.11,0.07c-0.05-0.04-0.1-0.08-0.15-0.12c0.07,0.06,0.13,0.13,0.19,0.2
			c-0.04-0.05-0.08-0.1-0.12-0.15c0.19,0.25,0.37,0.52,0.49,0.82c-0.03-0.06-0.05-0.12-0.08-0.18c0.06,0.15,0.11,0.31,0.14,0.47
			c-0.01-0.07-0.02-0.13-0.03-0.2c0.01,0.1,0.01,0.2,0,0.29c0.01-0.07,0.02-0.13,0.03-0.2c-0.01,0.07-0.03,0.15-0.06,0.22
			c0.03-0.06,0.05-0.12,0.08-0.18c-0.03,0.07-0.07,0.14-0.12,0.2c0.04-0.05,0.08-0.1,0.12-0.15c-0.01,0.01-0.01,0.02-0.02,0.03
			c0.3-0.04,0.61-0.08,0.91-0.12c-0.1-0.06-0.2-0.12-0.29-0.19c0.05,0.04,0.1,0.08,0.15,0.12c-0.15-0.12-0.29-0.26-0.41-0.41
			c0.04,0.05,0.08,0.1,0.12,0.15c-0.13-0.17-0.24-0.36-0.33-0.56c0.03,0.06,0.05,0.12,0.08,0.18c-0.08-0.2-0.14-0.41-0.17-0.63
			c0.01,0.07,0.02,0.13,0.03,0.2c-0.02-0.14-0.02-0.27-0.02-0.41c0.02-0.39-0.36-0.77-0.75-0.75
			C46.08,72.51,45.77,72.82,45.75,73.24L45.75,73.24z"/>
	</g>
</g>
<g>
	<g>
		<path class="st7" d="M59.35,68.05c0.03,0.27,0.07,0.53,0.14,0.8c0.07,0.27,0.17,0.52,0.28,0.77c0.2,0.45,0.47,0.86,0.78,1.24
			c0.29,0.35,0.99,0.26,1.18-0.15c0.28-0.61,0.35-1.29,0.15-1.93c-0.2-0.63-0.61-1.18-1.18-1.52c-0.34-0.2-0.84-0.09-1.03,0.27
			c-0.19,0.36-0.09,0.81,0.27,1.03c0.07,0.04,0.13,0.08,0.19,0.13c-0.05-0.04-0.1-0.08-0.15-0.12c0.12,0.09,0.22,0.2,0.32,0.32
			c-0.04-0.05-0.08-0.1-0.12-0.15c0.11,0.14,0.19,0.29,0.26,0.44c-0.03-0.06-0.05-0.12-0.08-0.18c0.07,0.17,0.12,0.35,0.14,0.53
			c-0.01-0.07-0.02-0.13-0.03-0.2c0.02,0.17,0.02,0.34,0,0.51c0.01-0.07,0.02-0.13,0.03-0.2c-0.02,0.15-0.06,0.29-0.12,0.43
			c0.03-0.06,0.05-0.12,0.08-0.18c-0.01,0.02-0.02,0.04-0.03,0.06c0.39-0.05,0.79-0.1,1.18-0.15c-0.03-0.04-0.07-0.08-0.1-0.13
			c0.04,0.05,0.08,0.1,0.12,0.15c-0.23-0.3-0.42-0.63-0.57-0.98c0.03,0.06,0.05,0.12,0.08,0.18c-0.15-0.36-0.25-0.74-0.31-1.13
			c0.01,0.07,0.02,0.13,0.03,0.2c0-0.01,0-0.03-0.01-0.04c-0.03-0.21-0.07-0.38-0.22-0.53c-0.13-0.13-0.34-0.23-0.53-0.22
			c-0.19,0.01-0.4,0.07-0.53,0.22C59.45,67.66,59.33,67.86,59.35,68.05L59.35,68.05z"/>
	</g>
</g>
<g>
	<g>
		<path class="st7" d="M53.77,93.37c1.04,0.08,2.04,0.45,3.09,0.4c1.06-0.05,2.08-0.41,3.13-0.54c0.38-0.05,0.38-0.65,0-0.6
			c-1.05,0.12-2.07,0.48-3.13,0.54c-1.05,0.05-2.06-0.32-3.09-0.4C53.39,92.74,53.39,93.35,53.77,93.37L53.77,93.37z"/>
	</g>
</g>
<path class="st8" d="M55.27,77.82l0.68,4.24c0.14,0.86,1.07,1.34,1.85,0.95l2.33-1.18c0.78-0.39,0.95-1.43,0.34-2.05l-3.01-3.07
	C56.58,75.82,55.07,76.58,55.27,77.82z"/>
<path class="st3" d="M2.68,78.59c0.38,1.54,1.3,2.99,2.55,3.88c0.36,3.49,3.68,6.98,7.48,5.19c4.17-1.97,3.07-7.54-0.01-9.74
	c-0.07-0.67-0.25-1.35-0.52-1.98c2.96-2.37,1.72-7.25-1.17-9.19c-0.1-0.3-0.24-0.6-0.38-0.88c0.07-0.24,0.12-0.48,0.16-0.72
	c0.19-0.06,0.39-0.14,0.58-0.23c5.95-2.81,1.17-12.97-4.79-10.16c-1.64,0.77-2.47,2.11-2.67,3.58c-0.19,0.06-0.38,0.12-0.57,0.21
	c-3.05,1.44-3.28,4.8-1.98,7.37C1,67.1,1.1,68.43,1.55,69.66C-1.16,72.02-0.03,76.61,2.68,78.59z"/>
<path class="st3" d="M56.39,40.94c0.25-2.62-2.05-5.44-4.75-5.35c-1.25-1.56-3.34-2.4-5.41-1.29c-1.3-1.85-3.73-2.9-6.05-1.31
	c-0.07,0.05-0.13,0.11-0.2,0.16c-0.87-0.56-1.89-0.82-2.96-0.62c-1.27-1.95-3.78-3.11-6.16-1.48c-0.91,0.62-1.45,1.41-1.69,2.25
	c-1.22-0.59-2.68-0.62-4.1,0.35c-0.41,0.28-0.75,0.6-1.02,0.94c-1.03-0.26-2.18-0.11-3.3,0.66c-0.69,0.47-1.17,1.04-1.46,1.66
	c-0.68,0.05-1.38,0.28-2.08,0.76c-1.27,0.86-1.81,2.05-1.84,3.25c-0.12,0.07-0.25,0.14-0.37,0.22c-0.55,0.37-0.96,0.81-1.25,1.28
	c-1.21-0.56-2.66-0.58-4.06,0.39c-2.56,1.75-2.18,4.8-0.54,6.69c-0.58,0.09-1.17,0.32-1.75,0.72c-2.07,1.41-2.22,3.68-1.34,5.49
	c-0.37,1.49,0.17,3.14,1.2,4.32c-2.27,2.03-1.39,5.31,0.65,6.94c-0.82,1.41-0.62,3.11,0.18,4.47c-0.54,3.29,3.09,7.08,6.6,5.07
	c1.37,1.36,3.44,1.94,5.43,0.58c2.02-1.38,2.21-3.57,1.4-5.36c0.3-0.12,0.59-0.27,0.89-0.48c1.61-1.1,2.06-2.72,1.76-4.24
	c0.29-0.12,0.58-0.27,0.86-0.47c1.01-0.69,1.56-1.58,1.76-2.52c0.67-0.06,1.37-0.29,2.06-0.76c0.96-0.65,1.5-1.49,1.72-2.38
	c0.91,0.12,1.89-0.08,2.85-0.74c0.91-0.62,1.45-1.41,1.69-2.25c1.02,0.24,2.14,0.08,3.24-0.67c1.05-0.72,1.6-1.65,1.78-2.64
	c0.94,0.48,2.03,0.61,3.13,0.22c1.31,0.86,3,1.05,4.64-0.07c0.06-0.04,0.1-0.09,0.16-0.13c1.28,1.93,3.77,3.06,6.14,1.44
	c0.09-0.06,0.16-0.12,0.24-0.18c1.03,0.25,2.17,0.11,3.29-0.66c2.37-1.62,2.21-4.35,0.88-6.24C61.85,46.46,59.66,41.66,56.39,40.94z
	"/>
<g>
	<path class="st6" d="M87.33,104.88L87.33,104.88c-1.42,0.4-2.91-0.44-3.31-1.86l-5.27-18.81c-0.4-1.42,0.44-2.91,1.86-3.31l0,0
		c1.42-0.4,2.91,0.44,3.31,1.86l5.27,18.81C89.59,102.99,88.75,104.48,87.33,104.88z"/>
	
		<ellipse transform="matrix(0.9618 -0.2736 0.2736 0.9618 -16.0708 23.7786)" class="st9" cx="77.21" cy="69.51" rx="6.15" ry="12.57"/>
</g>
<path class="st4" d="M58.36,114.29c-0.38,0.34-0.7,0.74-1.04,1.11c-0.24,0.26-0.48,0.51-0.76,0.72c-0.66,0.5-1.48,0.78-2.29,1.02
	c-4.15,1.24-8.38,1.63-12.71,1.35c-4.03-0.26-7.94-2.47-12.01-1.11c-10.41,3.49-10.02,17.25-10.65,26.13
	c-0.68,9.58-3.65,48.65,14.01,45.84c2.1-0.34,3.48-2.81,3.54-4.82c0-0.09,0.01-0.18,0.01-0.27c0.08-2.72-1.6-4.29-3.58-4.71
	c-1.38-1.97-2.19-6.98-2.61-8.62c-0.84-3.27-1.47-6.6-1.81-9.96c-0.6-5.86-0.46-11.75,0.36-17.57c0.86-0.8,1.43-1.92,1.43-3.37
	c0.02-4.59,0.16-9.25,3.16-12.82c5.88,1.58,12.01,1.84,18.07,0.76c5.1-0.91,12.63-3.08,15.36-7.5
	C69.77,115.69,62.55,110.5,58.36,114.29z"/>
<path class="st2" d="M85.87,111.4l-1.1-0.12c-3.11,0.17-5.84-3.19-6.07-7.47l-0.18-3.42c-0.23-4.27,2.13-7.91,5.24-8.08l1-0.05
	c3.11-0.17,5.84,3.19,6.07,7.47l0.18,3.42C91.23,107.43,88.98,111.23,85.87,111.4z"/>
<path class="st10" d="M91.45,103.84c-0.39-0.13-0.83-0.11-1.24-0.09c-3.33,0.17-6.67,0.35-10,0.52c-0.97,0.05-2.02,0.14-2.73,0.79
	c-1.03,0.96-0.84,2.62-0.61,4.02c1.32,8.08,0.81,16.43-1.37,24.31c-2.17,7.88-13.39,3.14-18.2,0.26c-5.71-3.41-9.45-8.9-14.85-12.59
	c-4.42-3.02-11.14-5.78-15.93-2.15c-4.47,3.38-4.83,9.72-2.6,14.52c7.54,16.19,29.15,28.34,46.21,30.27
	c7.18,0.81,15.02-0.07,20.5-4.76c6.66-5.7,8.11-15.41,7.83-24.18c-0.32-10.1-2.33-20.15-5.93-29.59c-0.16-0.41-0.33-0.85-0.68-1.12
	C91.73,103.95,91.59,103.89,91.45,103.84z"/>
<path class="st3" d="M12.43,74.98c-0.33,1.55-0.13,3.26,0.6,4.61c-1.2,3.3,0.27,7.89,4.47,7.93c4.61,0.05,6.05-5.45,4.24-8.77
	c0.23-0.64,0.36-1.32,0.4-2.01c3.7-0.85,4.71-5.78,2.95-8.78c0.04-0.32,0.05-0.64,0.04-0.96c0.17-0.18,0.32-0.38,0.46-0.58
	c0.2,0.03,0.41,0.04,0.62,0.04c6.58,0.07,6.71-11.16,0.12-11.23c-1.82-0.02-3.14,0.83-3.97,2.06c-0.2-0.02-0.4-0.06-0.61-0.06
	c-3.37-0.04-5.04,2.89-4.99,5.77c-0.84,0.91-1.33,2.16-1.46,3.46C11.84,67.4,10.86,72.02,12.43,74.98z"/>
</svg>
