<?xml version="1.0" encoding="utf-8"?>
<!-- Generator: Adobe Illustrator 24.3.0, SVG Export Plug-In . SVG Version: 6.00 Build 0)  -->
<svg version="1.1" id="Layer_1" xmlns="http://www.w3.org/2000/svg" xmlns:xlink="http://www.w3.org/1999/xlink" x="0px" y="0px"
	 viewBox="0 0 166.28 207.3" style="enable-background:new 0 0 166.28 207.3;" xml:space="preserve">
<style type="text/css">
	.st0{fill:#010101;}
	.st1{fill:#C09D76;}
	.st2{fill:#D7AE82;}
	.st3{fill:#D63633;}
	.st4{fill:#D23532;}
	.st5{fill:#EF3E3F;}
	.st6{opacity:0.5;fill:#B77F4A;}
	.st7{fill:#D2D0CE;}
	.st8{fill:#E3EBF6;}
</style>
<path class="st0" d="M109.1,3.85c-14.87-8.13-36.42-2.53-49.14,8.94c-3.69,3.33-6.94,7.16-9.59,11.37
	C42.84,36.15,38.15,50.18,34.22,63.7c-7.27,24.98-7.3,53.49-19.66,76.74c-4.1,7.7-12.4,14.12-14.29,22.83
	c-1.2,5.51,1.61,13.13,8.54,10.28c3.59-1.48,5.62-5.61,7.81-8.6c3.67-5.01,7.57-9.88,12.12-14.13c9.71-9.07,20.49-11.5,33.44-12.11
	c10.32-0.49,20.82-1.13,29.63-7.14c18.29-12.48,21.99-37.02,27.1-56.87c2.13-8.29,4.76-16.46,6.05-24.95
	c1.6-10.52,0.99-22.11-3.35-31.94C118.71,11.24,114.31,6.7,109.1,3.85z"/>
<rect x="74.61" y="86.69" class="st1" width="31.34" height="38.43"/>
<path class="st2" d="M120.19,54.45c-1.67,24.5-21.11,52.61-37.68,42C62.6,83.7,49.19,74.23,50.85,49.73s18.54-43.3,37.68-42
	S121.85,29.95,120.19,54.45z"/>
<path class="st3" d="M96.21,168.45c12.49,1.41,24.74-0.18,36.32-5.15c0,0,0.01,0,0.01,0c2.54-7.62-4.39-20.14-7.03-25.97
	c-0.87-1.92,0.11-3.73,1.53-4.58c-0.13-0.52-0.24-1.06-0.32-1.64c-0.48-3.87-0.34-7.96-0.22-11.97c-0.33-3.07-0.41-6.18-0.24-9.35
	c-2.62-1.73-5.32-3.32-8.12-4.72c-3.83-1.92-0.46-7.67,3.36-5.75c23.79,11.91,44.69,37.92,44.78,65.54
	c0.11,35.98-47.52,30.23-70.78,23.7c-1.42-0.4-2.43-1.74-2.44-3.21c-0.06-4.52-0.12-9.04-0.17-13.56
	C92.86,170.12,94.43,168.25,96.21,168.45z"/>
<path class="st4" d="M80.69,173.67c-12.49,1.41-24.74-0.18-36.32-5.15c0,0-0.01,0-0.01,0c-2.54-7.62,4.39-20.14,7.03-25.97
	c0.87-1.92-0.11-3.73-1.53-4.58c0.13-0.52,0.24-1.06,0.32-1.64c0.48-3.87,0.34-7.96,0.22-11.97c0.33-3.07,0.41-6.18,0.24-9.35
	c2.62-1.73,5.32-3.32,8.12-4.72c3.83-1.92,0.46-7.67-3.36-5.75c-23.79,11.91-44.69,37.92-44.78,65.54
	c-0.11,35.98,47.52,30.23,70.78,23.7c1.42-0.4,2.43-1.74,2.44-3.21c0.06-4.52,0.12-9.04,0.17-13.56
	C84.04,175.35,82.47,173.47,80.69,173.67z"/>
<path class="st5" d="M135.72,160.65c3.03-7.79,6.06-15.58,9.1-23.37c2.4-6.18,4.82-11.84,2.45-18.49
	c-2.6-7.29-9.14-12.55-15.79-16.03c-3.33-1.74-6.93-3.22-10.59-4.08c-1.28-0.3-13.71-2.91-13.87-2.53
	c-2.9,6.73-9.59,11.44-17.38,11.44c-7.01,0-13.12-3.82-16.39-9.48c-1.19-2.06-20.53,5.15-22.85,6.23
	c-6.78,3.14-14.96,8.55-17.79,15.77c-2.61,6.65,0.05,12.31,2.69,18.49c3.33,7.79,6.67,15.58,10,23.37c0.88,2.06,2.47,3.33,4.26,3.96
	l3.05,39.77l85.18-8.52l-4.96-33.01C134.03,163.44,135.08,162.29,135.72,160.65z"/>
<g>
	<g>
		<path class="st0" d="M71.69,63.61c-0.32,0.72-0.44,1.47-0.34,2.25c0.1,0.78,0.42,1.47,0.91,2.08c0.21,0.26,0.64,0.27,0.91,0.12
			c1.1-0.62,1.15-1.96,0.94-3.06c-0.11-0.58-0.28-1.27-0.83-1.6c-0.42-0.25-0.94-0.17-1.3,0.15c-0.33,0.3-0.48,0.86-0.19,1.24
			c0.12,0.16,0.24,0.29,0.45,0.34c0.18,0.05,0.42,0.03,0.58-0.08c0.31-0.2,0.52-0.69,0.27-1.03c-0.05-0.07-0.04-0.03,0.02,0.11
			c0.06,0.14,0.05,0.28-0.04,0.42c0.01-0.01,0.01-0.02,0.02-0.03c-0.04,0.07-0.09,0.13-0.16,0.16c0.1-0.06-0.09,0.03-0.13,0.03
			c-0.1,0.01-0.2-0.01-0.29-0.06c0.13,0.07-0.11-0.11-0.01-0.01c-0.13-0.13-0.05-0.06-0.02,0c0.07,0.11-0.04-0.11-0.01-0.03
			c0.01,0.04,0.03,0.07,0.04,0.11c0.05,0.16,0.09,0.32,0.13,0.48c0.02,0.09,0.04,0.18,0.05,0.27c0.01,0.04,0.01,0.08,0.02,0.11
			c0.01,0.08-0.02-0.19,0-0.02c0.02,0.16,0.03,0.33,0.02,0.5c0,0.04,0,0.07-0.01,0.11c-0.01,0.08-0.05,0.16,0.01-0.03
			c-0.02,0.07-0.03,0.15-0.05,0.23c-0.01,0.03-0.02,0.07-0.03,0.1c-0.03,0.1-0.07,0.08,0.02-0.03c-0.04,0.05-0.08,0.13-0.11,0.19
			c-0.04,0.08,0.12-0.13,0.03-0.04c-0.03,0.03-0.06,0.06-0.08,0.09c-0.09,0.1,0.15-0.09,0.02-0.02c-0.04,0.02-0.07,0.05-0.11,0.07
			c0.3,0.04,0.61,0.08,0.91,0.12c-0.07-0.08,0.01,0,0.02,0.03c-0.01-0.03-0.05-0.06-0.06-0.08c-0.04-0.06-0.08-0.12-0.11-0.17
			c-0.07-0.12-0.11-0.26-0.19-0.37c0.02,0.04,0.05,0.13,0.02,0.04c-0.01-0.03-0.02-0.06-0.04-0.1c-0.02-0.07-0.04-0.13-0.06-0.2
			c-0.02-0.07-0.03-0.13-0.05-0.2c-0.01-0.03-0.01-0.07-0.02-0.1c0-0.03-0.03-0.18-0.01-0.05c0.02,0.11,0-0.01,0-0.03
			c0-0.03-0.01-0.07-0.01-0.1c0-0.07-0.01-0.14-0.01-0.21c0-0.07,0-0.14,0.01-0.21c0-0.03,0-0.07,0.01-0.1c0-0.02,0.02-0.14,0-0.03
			c-0.02,0.11,0-0.01,0.01-0.03c0.01-0.03,0.01-0.07,0.02-0.1c0.01-0.07,0.03-0.13,0.05-0.2c0.02-0.07,0.04-0.13,0.06-0.2
			c0.02-0.05,0.11-0.27,0.03-0.09c0.16-0.36,0.12-0.82-0.27-1.03C72.39,63.17,71.86,63.22,71.69,63.61L71.69,63.61z"/>
	</g>
</g>
<g>
	<g>
		<path class="st0" d="M100.42,63.29c-0.37,1.47-0.32,3.04,0.15,4.48c0.18,0.54,0.83,0.74,1.25,0.33c0.7-0.68,1.07-1.6,1.14-2.57
			c0.06-0.98-0.26-1.91-0.86-2.67c-0.24-0.31-0.81-0.28-1.06,0c-0.3,0.33-0.26,0.73,0,1.06c-0.06-0.07-0.05-0.06,0,0.01
			c0.03,0.04,0.05,0.08,0.08,0.12c0.04,0.07,0.09,0.15,0.12,0.22c0.02,0.04,0.04,0.08,0.06,0.13c-0.02-0.05-0.04-0.11-0.01-0.02
			c0.03,0.08,0.06,0.16,0.08,0.24c0.03,0.09,0.05,0.18,0.07,0.27c0.01,0.04,0.01,0.07,0.02,0.11c0.02,0.09-0.01-0.15,0,0
			c0.01,0.18,0.02,0.36,0.01,0.54c0,0.04-0.01,0.08-0.01,0.11c-0.02,0.17-0.02,0,0,0c-0.02,0-0.04,0.22-0.05,0.25
			c-0.02,0.08-0.04,0.16-0.07,0.24c-0.01,0.04-0.03,0.09-0.05,0.13c-0.03,0.09-0.04,0.09,0,0c-0.07,0.15-0.15,0.3-0.24,0.44
			c0,0-0.1,0.15-0.04,0.06c0.06-0.09-0.04,0.05-0.05,0.06c-0.06,0.07-0.13,0.14-0.19,0.2c0.42,0.11,0.84,0.22,1.25,0.33
			c-0.1-0.32-0.19-0.64-0.25-0.96c-0.01-0.08-0.03-0.15-0.04-0.23c-0.01-0.09-0.01-0.1,0-0.03c0-0.04-0.01-0.08-0.01-0.11
			c-0.02-0.17-0.03-0.33-0.04-0.5c-0.01-0.33,0-0.66,0.03-1c0-0.03,0.03-0.24,0.01-0.11c0.01-0.08,0.02-0.15,0.04-0.23
			c0.03-0.18,0.07-0.35,0.11-0.52c0.09-0.38-0.12-0.83-0.52-0.92C100.95,62.67,100.52,62.88,100.42,63.29L100.42,63.29z"/>
	</g>
</g>
<path class="st6" d="M87.7,72.87l-3.28,4.05c-0.71,0.88-0.03,2.18,1.09,2.1l7.09-0.5c1.12-0.08,1.61-1.46,0.79-2.23l-3.81-3.55
	C89.04,72.23,88.17,72.29,87.7,72.87z"/>
<g>
	<g>
		<path class="st0" d="M86.28,87.4c1.42,0.11,2.79,0.62,4.23,0.55c1.45-0.07,2.84-0.56,4.28-0.73c0.38-0.05,0.38-0.65,0-0.6
			c-1.44,0.17-2.83,0.66-4.28,0.73c-1.43,0.07-2.81-0.44-4.23-0.55C85.9,86.77,85.9,87.37,86.28,87.4L86.28,87.4z"/>
	</g>
</g>
<path class="st0" d="M51.24,40.82C51.33,22.07,67.08,6.95,86.4,7.05s34.92,15.37,34.83,34.11"/>
<path class="st7" d="M142.35,207.3H39.79c-4.71,0-8.52-3.82-8.52-8.52v-65.7c0-4.71,3.82-8.52,8.52-8.52h102.56
	c4.71,0,8.52,3.82,8.52,8.52v65.7C150.87,203.49,147.06,207.3,142.35,207.3z"/>
<circle class="st8" cx="90.32" cy="165.81" r="11"/>
</svg>
