<?xml version="1.0" encoding="utf-8"?>
<!-- Generator: Adobe Illustrator 24.3.0, SVG Export Plug-In . SVG Version: 6.00 Build 0)  -->
<svg version="1.1" id="Layer_1" xmlns="http://www.w3.org/2000/svg" xmlns:xlink="http://www.w3.org/1999/xlink" x="0px" y="0px"
	 viewBox="0 0 285.66 283.85" style="enable-background:new 0 0 285.66 283.85;" xml:space="preserve">
<style type="text/css">
	.st0{fill:#070707;}
	.st1{fill:#575654;stroke:#575654;stroke-width:1.4;stroke-miterlimit:10;}
	.st2{fill:#D7AE82;}
	.st3{fill:#BFB8B2;}
	.st4{fill:#B6B3AE;}
	.st5{fill:#CB4827;}
	.st6{fill:#55958E;}
	.st7{fill:#C09D76;}
	.st8{fill:#FFFFFF;}
	.st9{fill:#010101;}
	.st10{opacity:0.5;fill:#B77F4A;}
	.st11{fill:#4D807A;}
	.st12{fill:#CA4727;}
	.st13{fill:#303030;}
	.st14{fill:#D2D0CE;}
	.st15{fill:#D1CCC7;}
	.st16{fill:#575654;}
</style>
<path class="st0" d="M138.06,230.86h-14.51c-0.69,0-1.24-0.56-1.24-1.24V218.1c0-0.69,0.56-1.24,1.24-1.24h14.51
	c0.69,0,1.24,0.56,1.24,1.24v11.51C139.3,230.3,138.74,230.86,138.06,230.86z"/>
<path class="st1" d="M138.84,210.77c-1.11,0.35-2.24,0.87-3.3,1.06c-3.81,0.69-7.8,0.21-11.47-0.91
	c-10.01-3.06-23.74-10.56-25.27-22.1c-1.07-8.13,0.74-16.78,4.91-24.01c2.18-3.78,4.98-7.19,8.26-10.06
	c2.64-2.31,8.66-4.84,7.6-9.27c-0.59-2.44-3.52-3.72-5.99-3.31c-2.48,0.42-4.55,2.07-6.41,3.76c-8.73,7.95-15.5,18.45-17.38,30.12
	c-2.75,17.07,5.95,31.43,20.69,39.46c7.38,4.02,19.61,6.28,27.96,4.67C145.57,218.79,145.67,208.63,138.84,210.77z"/>
<path class="st2" d="M88.38,224.14l0.38-1.58c0.78-3.21,4.05-5.21,7.26-4.43l3.19,0.77c3.21,0.78,5.21,4.05,4.43,7.26l-0.38,1.58
	c-0.78,3.21-4.05,5.21-7.26,4.43l-3.19-0.77C89.6,230.62,87.6,227.35,88.38,224.14z"/>
<path class="st3" d="M125.06,158.18l-9.49,1.36c-2.87,0.41-5.52-1.58-5.94-4.45l-2.11-14.68c-0.41-2.87,1.58-5.52,4.45-5.94
	l9.49-1.36c2.87-0.41,5.52,1.58,5.94,4.45l2.11,14.68C129.92,155.11,127.93,157.77,125.06,158.18z"/>
<path class="st4" d="M146.68,185.67l-8.47,1.22c-1.8,0.26-3.46-0.99-3.72-2.79l-5.82-40.54c-0.26-1.8,0.99-3.46,2.79-3.72l8.47-1.22
	c1.8-0.26,3.46,0.99,3.72,2.79l5.82,40.54C149.73,183.74,148.48,185.41,146.68,185.67z"/>
<path class="st5" d="M161.91,68.13c-0.88-7.48-10.52-4.3-9.64,3.13c1.06,8.93-4.96,16.65-10.62,21.82
	c-5.08,4.64,2.04,12.93,7.07,8.34c4.32-3.95,7.99-8.87,10.62-14.54c1.17-2.51,2.34-5.35,2.95-8.13
	C163.13,74.96,162.35,71.87,161.91,68.13z"/>
<path class="st6" d="M65.83,237.88l-48.36-7.92c-6.51-1.07-10.97-7.27-9.9-13.78l13.65-83.35c3.25-19.81,22.11-33.36,41.92-30.12
	l0,0c19.81,3.25,33.36,22.11,30.12,41.92l-13.65,83.35C78.54,234.49,72.34,238.95,65.83,237.88z"/>
<path class="st7" d="M67.09,130.79l-13.46-23.31c0,0,12.68-5.17,16.63-7.42c4.43-2.52,16.66-11.8,16.66-11.8l13.46,23.31
	c0,0-13.03,5.81-17.14,8.18C79,122.19,67.09,130.79,67.09,130.79z"/>
<path class="st2" d="M133.95,110.67c-19.96,12.86-52.54,14.71-53.44-3.58c-1.08-21.97-1.12-37.28,18.84-50.14
	s43.88-11.25,53.44,3.58S153.91,97.82,133.95,110.67z"/>
<path class="st6" d="M81.51,120.7c-7.73,2.8-18.4-4.99-18.35-13.02c0-0.43-0.04-0.83-0.13-1.21c-0.05-1.35-0.25-2.65-1.52-3.49
	c-0.59-0.39-1.41-0.34-2.03,0.02c-2.84-0.66-6.3,0.89-6.33,4.68c-0.03,4.46,1.34,8.58,3.73,12.07c-2.27,1.64-3.36,4.98-0.78,7.52
	c5.08,5,10.08,11.21,17.81,11.32c4.3,0.06,5.73-4.38,4.28-7.37c2.06,0.06,4.09-0.19,5.98-0.88C90.17,128.16,87.58,118.5,81.51,120.7
	z"/>
<g>
	<path class="st8" d="M126.07,87.34c-0.79,0.22-1.43,0.92-1.59,1.73c0.64,0.26,1.25-0.39,1.64-0.96c0.1-0.15,0.2-0.32,0.15-0.49
		c-0.05-0.17-0.36-0.21-0.38-0.04"/>
	<g>
		<path class="st9" d="M125.67,85.89c-0.32,0.09-0.64,0.22-0.92,0.4c-0.28,0.18-0.55,0.38-0.78,0.63c-0.15,0.16-0.28,0.34-0.41,0.52
			c-0.06,0.09-0.12,0.19-0.17,0.29c-0.15,0.29-0.29,0.61-0.35,0.94c-0.06,0.2-0.07,0.4-0.03,0.6c0.01,0.2,0.07,0.39,0.18,0.56
			c0.08,0.1,0.16,0.2,0.23,0.3c0.19,0.19,0.41,0.31,0.66,0.39c0.06,0.02,0.11,0.04,0.17,0.05c0.18,0.03,0.36,0.07,0.55,0.06
			c0.18-0.01,0.36-0.03,0.53-0.07c0.06-0.01,0.12-0.03,0.18-0.05c0.23-0.09,0.46-0.18,0.65-0.32c0.2-0.14,0.39-0.29,0.57-0.46
			c0.09-0.09,0.18-0.19,0.26-0.3c0.15-0.19,0.31-0.39,0.45-0.6c0.21-0.33,0.32-0.69,0.34-1.08c0.01-0.18-0.02-0.37-0.07-0.54
			c-0.03-0.09-0.11-0.29-0.16-0.37c0-0.01-0.01-0.01-0.01-0.02c-0.02-0.04-0.21-0.28-0.24-0.31c-0.01-0.01-0.02-0.02-0.03-0.03
			c-0.04-0.04-0.26-0.21-0.31-0.24c-0.01-0.01-0.02-0.01-0.03-0.02c-0.09-0.05-0.27-0.12-0.37-0.16c-0.01,0-0.02-0.01-0.03-0.01
			c-0.01,0-0.02-0.01-0.03-0.01c-0.1-0.02-0.31-0.05-0.42-0.06c-0.01,0-0.02,0-0.03,0c-0.12,0-0.31,0.03-0.42,0.05
			c-0.25,0.05-0.41,0.16-0.6,0.3c-0.06,0.05-0.12,0.08-0.17,0.13c-0.05,0.05-0.21,0.26-0.24,0.32c-0.08,0.12-0.14,0.27-0.17,0.41
			c-0.06,0.2-0.07,0.4-0.03,0.6c0.01,0.2,0.07,0.39,0.18,0.56c0.09,0.17,0.22,0.32,0.39,0.42c0.14,0.13,0.31,0.22,0.51,0.27
			c0.38,0.09,0.82,0.07,1.16-0.15c0.32-0.2,0.61-0.52,0.69-0.9c0-0.01,0-0.02,0.01-0.03c-0.05,0.12-0.1,0.24-0.15,0.36
			c0-0.01,0.01-0.02,0.02-0.03c-0.08,0.1-0.16,0.2-0.23,0.3c0.01-0.01,0.01-0.01,0.02-0.02c-0.1,0.08-0.2,0.16-0.3,0.23
			c0.01-0.01,0.02-0.02,0.04-0.02c-0.12,0.05-0.24,0.1-0.36,0.15c0.02,0,0.03-0.01,0.05-0.01c-0.13,0.02-0.27,0.04-0.4,0.05
			c0.02,0,0.03,0,0.05,0c-0.13-0.02-0.27-0.04-0.4-0.05c0.03,0,0.06,0.01,0.08,0.02c-0.12-0.05-0.24-0.1-0.36-0.15
			c0.02,0.01,0.03,0.02,0.05,0.03c-0.1-0.08-0.2-0.16-0.3-0.23c0.01,0.01,0.03,0.02,0.04,0.04c-0.08-0.1-0.16-0.2-0.23-0.3
			c0.01,0.01,0.02,0.03,0.03,0.04c-0.05-0.12-0.1-0.24-0.15-0.36c0.01,0.02,0.01,0.05,0.02,0.07c-0.02-0.13-0.04-0.27-0.05-0.4
			c0,0.03,0,0.06,0,0.08c0.02-0.13,0.04-0.27,0.05-0.4c-0.01,0.05-0.02,0.09-0.04,0.14c0.05-0.12,0.1-0.24,0.15-0.36
			c-0.07,0.16-0.18,0.3-0.28,0.43c0.08-0.1,0.16-0.2,0.23-0.3c-0.15,0.19-0.32,0.37-0.51,0.52c0.1-0.08,0.2-0.16,0.3-0.23
			c-0.1,0.07-0.2,0.14-0.31,0.19c0.12-0.05,0.24-0.1,0.36-0.15c-0.08,0.04-0.17,0.06-0.26,0.07c0.13-0.02,0.27-0.04,0.4-0.05
			c-0.07,0.01-0.13,0.01-0.19,0c0.13,0.02,0.27,0.04,0.4,0.05c-0.07-0.01-0.13-0.03-0.2-0.05c0.35,0.62,0.7,1.23,1.05,1.85
			c0.03-0.15,0.07-0.3,0.13-0.44c-0.05,0.12-0.1,0.24-0.15,0.36c0.08-0.17,0.17-0.34,0.29-0.49c-0.08,0.1-0.16,0.2-0.23,0.3
			c0.12-0.16,0.26-0.3,0.42-0.42c-0.1,0.08-0.2,0.16-0.3,0.23c0.16-0.12,0.33-0.22,0.51-0.3c-0.12,0.05-0.24,0.1-0.36,0.15
			c0.08-0.03,0.16-0.06,0.24-0.08c0.37-0.1,0.7-0.36,0.9-0.69c0.11-0.17,0.17-0.36,0.18-0.56c0.04-0.2,0.04-0.4-0.03-0.6
			c-0.12-0.36-0.34-0.71-0.69-0.9C126.47,85.86,126.07,85.78,125.67,85.89L125.67,85.89z"/>
	</g>
</g>
<path class="st10" d="M123.54,101.4l-7.55,1.8c-0.86,0.21-1.26,1.2-0.79,1.94l2.71,4.27c0.47,0.75,1.54,0.8,2.09,0.11l4.84-6.07
	C125.61,102.49,124.74,101.11,123.54,101.4z"/>
<g>
	<g>
		<path class="st9" d="M104.49,108.21c0.28,0.7,0.11,1.46,0.05,2.19c-0.05,0.69,0.01,1.36,0.42,1.95c0.77,1.1,2.16,1.68,2.79,2.88
			c0.18,0.34,0.7,0.04,0.52-0.3c-0.62-1.19-1.94-1.76-2.73-2.81c-0.91-1.2,0.06-2.75-0.46-4.06
			C104.93,107.7,104.35,107.85,104.49,108.21L104.49,108.21z"/>
	</g>
</g>
<path class="st11" d="M92.33,216.65c-2.37-2.25-7.21-4.11-9.08-5.21c-4.26-2.52-9.28-4.92-13.01-8.2c-0.05-0.05-0.09-0.09-0.15-0.14
	c-6.81-5.31-13-11.78-16.78-19.62c-1.89-3.92-3.09-8.11-3.52-12.44c-0.5-5.01-0.47-10.05-2.94-14.6c-3.02-5.56-6.4-11.05-9.1-16.77
	c-2.58-5.46-4.6-11.24-6.7-16.89c-0.81-2.19-3.28-2.46-4.78-1.52c-0.61,0.18-1.19,0.55-1.64,1.19c-7.62,10.8-10.66,23.7-11.63,36.72
	c-0.97,12.99-1.01,27.06,5.23,38.86c5.55,10.51,15.52,20.44,26.81,24.55c5.91,2.15,12.36,3.14,18.43,4.98
	c7.79,2.37,16.12,5.49,24.38,4.5c2.25-0.27,3.21-2.4,3.73-4.33c0.57-2.13,1.15-4.27,1.72-6.4c0.21-0.79,0.43-1.6,0.36-2.41
	C93.59,218.13,93.09,217.37,92.33,216.65z"/>
<path class="st5" d="M161.08,50.02c-3.57-11.34-12.34-21.47-24.52-23.45c-11.62-1.89-24.4,3.56-33.56,10.37
	c-5.82,4.33-10.76,9.66-14.59,15.71c-0.16,0.22-0.33,0.43-0.49,0.64c-0.24,0.32-0.4,0.67-0.52,1.04c-2.56,4.37-4.56,9.07-5.91,14.02
	c-0.16,0.57-0.12,1.09,0.05,1.52c-0.12,0.68,0.03,1.42,0.59,2.08c3.99,4.66,8.78-3.18,10.37-6.09c1.94-3.52,5.87-8.7,10.19-9.35
	c0.59-0.09,1.18-0.05,1.78-0.01c4.18,0.27,8.32,0.28,12.5,0.48c4.88,0.23,9.75,0.78,14.53,1.81c3.7,0.79,7.41,1.59,10.99,2.8
	c4.13,1.4,5.42,2.84,8.22,5.92c3.05,3.35,7.46,2.28,9.96-1.17C164.01,61.75,162.65,55.02,161.08,50.02z"/>
<path class="st12" d="M126.66,21.09c-0.73-8.73-5.58-16.71-14.12-19.81c-9.07-3.29-18.88-0.02-24.86,7.31
	c-4.66,5.72-7.61,12.51-10.16,19.37c-5.12,13.77-10.57,27.82-9.45,42.8c0.09,1.22,0.24,2.49,0.91,3.51c2.17,3.31,7.8,3.32,9.37-0.54
	c0.36-0.88,0.46-1.84,0.59-2.78c1.56-11.19,5.93-22.54,11.76-32.16c2.16-3.56,4.01-7.16,7.99-8.98c5.64-2.59,11.01,1.11,16.65-0.49
	c0.77-0.22,1.45-0.56,2.04-0.99c2.27,0.44,4.66-0.41,5.31-2.66C124.95,25.51,126.9,24.02,126.66,21.09z"/>
<path class="st6" d="M127.94,21.8c-2.37-1.25-5.96-0.41-8.66,1.37c-2.61,1.72-5.66,2.82-8.81,3.63c-3.31,0.85-5.44,3.76-4.85,5.57
	c0.69,2.12,3.88,2.52,7.19,1.67c5.39-1.38,10.22-3.72,14.57-6.59C130.07,25.68,129.97,22.88,127.94,21.8z"/>
<path class="st13" d="M64.6,283.85l-62.3-9.99c0,0-3.29-24.19-2-31c1.21-6.41,7.27-25.07,7.27-25.07l66.85,13.4L64.6,283.85z"/>
<path class="st14" d="M273.66,278.86h-201c-6.6,0-12-5.4-12-12v-24c0-6.6,5.4-12,12-12h201c6.6,0,12,5.4,12,12v24
	C285.66,273.46,280.26,278.86,273.66,278.86z"/>
<path class="st4" d="M140.6,142.1l-10.43,1.5c-1.8,0.26-3.46-0.99-3.72-2.79l-6.2-43.21c-0.26-1.8,0.99-3.46,2.79-3.72l10.43-1.5
	c1.8-0.26,3.46,0.99,3.72,2.79l6.2,43.21C143.65,140.18,142.4,141.85,140.6,142.1z"/>
<path class="st15" d="M148.7,171.65L132.35,174c-2.87,0.41-5.52-1.58-5.94-4.45l-5.65-39.34c-0.41-2.87,1.58-5.52,4.45-5.94
	l16.34-2.35c2.87-0.41,5.52,1.58,5.94,4.45l5.65,39.34C153.56,168.59,151.57,171.24,148.7,171.65z"/>
<path class="st16" d="M153.49,170.97l-25.53,3.66c-0.68,0.1-1.31-0.37-1.41-1.05l-0.54-3.74c-0.1-0.68,0.37-1.31,1.05-1.41
	l25.53-3.66c0.68-0.1,1.31,0.37,1.41,1.05l0.54,3.74C154.64,170.24,154.17,170.87,153.49,170.97z"/>
<path class="st16" d="M137.21,97.59l-16,2.3c-0.8,0.12-1.54-0.44-1.66-1.24l-0.47-3.3c-0.12-0.8,0.44-1.54,1.24-1.66l16-2.3
	c0.8-0.12,1.54,0.44,1.66,1.24l0.47,3.3C138.57,96.73,138.01,97.47,137.21,97.59z"/>
<path class="st0" d="M157.06,211.86h-31.68c-0.69,0-1.24-0.56-1.24-1.24v-5.51c0-0.69,0.56-1.24,1.24-1.24h31.68
	c0.69,0,1.24,0.56,1.24,1.24v5.51C158.3,211.3,157.74,211.86,157.06,211.86z"/>
<path class="st1" d="M147.3,234.86h-33c-2.21,0-4-1.79-4-4l0,0c0-2.21,1.79-4,4-4h33c2.21,0,4,1.79,4,4l0,0
	C151.3,233.07,149.51,234.86,147.3,234.86z"/>
</svg>
