<?xml version="1.0" encoding="utf-8"?>
<!-- Generator: Adobe Illustrator 24.3.0, SVG Export Plug-In . SVG Version: 6.00 Build 0)  -->
<svg version="1.1" id="Layer_1" xmlns="http://www.w3.org/2000/svg" xmlns:xlink="http://www.w3.org/1999/xlink" x="0px" y="0px"
	 viewBox="0 0 153.47 199.83" style="enable-background:new 0 0 153.47 199.83;" xml:space="preserve">
<style type="text/css">
	.st0{fill:#E3EBF6;}
	.st1{fill:#845C32;}
	.st2{fill:#F9BB4B;}
	.st3{fill:#6F4D28;}
	.st4{fill:#232323;}
	.st5{fill:#303030;}
	.st6{fill:#DFA942;}
	.st7{fill:#87C878;}
	.st8{fill:#010101;}
	.st9{fill:#A27040;}
</style>
<rect x="108.28" y="6.11" transform="matrix(0.866 -0.5 0.5 0.866 2.693 67.0681)" class="st0" width="36.44" height="44.8"/>
<path class="st1" d="M108.16,51.56l-0.78-0.78c-2.5-1.85-2.67-5.91-0.38-9.01l1.84-2.49c2.3-3.1,6.22-4.13,8.73-2.28l0.8,0.59
	c2.5,1.85,2.67,5.91,0.38,9.01l-1.84,2.49C114.61,52.2,110.66,53.41,108.16,51.56z"/>
<path class="st2" d="M117.39,49.79c-0.36-1.92-3.77-2.85-5.09-4.06c-1.67-1.54-5.32-6.51-7.56-3.29c-1.25,1.79-2.45,3.59-3.85,5.27
	c-4.15,5-9.17,9.18-13.39,14.11c-4.59,5.36-8.61,11.29-12.9,16.89c-0.23,0.3-0.46,0.61-0.7,0.92c-1.83,1.97-3.67,3.94-5.51,5.89
	c-3.89,4.12-7.94,8.12-12.88,10.68c-4.18,1.15-8.51,1.67-12.6,3.1c-4.62,1.61-8.17,4.67-10.51,8.58c-0.41,0.3-0.82,0.6-1.22,0.92
	c-4.01,3.15-5.44,6.77-4.79,11.15l-0.1,0.01l3.95,56.6l62.34-5.8l-6.77-47.28c3.73-10.42,7.45-20.85,11.18-31.27
	c4.9-13.71,8.76-29.18,18.61-40.32C116.11,51.29,117.55,50.62,117.39,49.79z"/>
<rect x="33.28" y="83.05" class="st3" width="26.3" height="22.4"/>
<path class="st4" d="M64.77,34.86c-6.14-7.15-13.31-14.76-25.23-12.88c-7.53,1.19-4.34,10.54,3.17,9.36
	c5.14-0.81,10.62,6.93,12.93,9.82c3.3,4.14,6.11,9.3,3.12,14.1c-3.47,5.56,6.83,10.48,10.3,4.9C74.44,51.52,71.29,42.47,64.77,34.86
	z"/>
<path class="st4" d="M58.04,30.73c-1.93-1.57-4.7,1.17-2.75,2.75c6.76,5.52,10.45,13.32,10.28,22.06c-0.05,2.51,3.85,2.51,3.9,0
	C69.64,45.88,65.54,36.85,58.04,30.73z"/>
<polygon class="st5" points="95.35,191.87 34.25,199.83 30.23,171.88 91.33,163.92 "/>
<path class="st0" d="M78.99,180.04l-11.44-19.82v-14.14c0-2.59-2.12-4.71-4.71-4.71h-4.87c-2.59,0-4.71,2.12-4.71,4.71v14.56
	l-11.2,19.4c-2.98,5.16,0.74,11.61,6.7,11.61h23.53C78.24,191.65,81.97,185.2,78.99,180.04z"/>
<path class="st1" d="M43.36,162.58l0.1-1.1c-0.23-3.11,3.08-5.9,7.35-6.21l3.42-0.25c4.27-0.31,7.95,1.97,8.18,5.08l0.07,1
	c0.23,3.11-3.08,5.9-7.35,6.21l-3.42,0.25C47.44,167.87,43.59,165.69,43.36,162.58z"/>
<path class="st6" d="M51.24,153.43c-9.13,1.03-18.09-0.13-26.56-3.77c0,0-0.01,0-0.01,0c-1.86-5.58,3.21-14.73,5.14-18.99
	c0.64-1.41-0.08-2.72-1.12-3.35c0.1-0.38,0.18-0.78,0.23-1.2c0.35-2.83,0.25-5.82,0.16-8.76c0.24-2.24,0.3-4.52,0.17-6.84
	c1.91-1.27,3.89-2.43,5.94-3.45c2.8-1.4,0.34-5.61-2.46-4.2C15.35,111.58,0.06,130.6,0,150.8c-0.08,27,36.59,21.87,53.05,16.96
	c0.29-0.09,0.48-0.35,0.48-0.64l0.14-11.25C53.69,154.66,52.54,153.28,51.24,153.43z"/>
<path class="st2" d="M59.51,95.08c-8.88,4.61-20,2.46-28.28,8.5c-4.84,2.63-9.08,6.24-10.76,10.68c-1.83,4.86,0.03,9,1.89,13.52
	c2.34,5.7,4.69,11.39,7.03,17.09c2.35,5.72,11.78,3.21,9.39-2.59c-0.61-1.49-1.22-2.98-1.84-4.47c1.25-1.03,1.91-2.68,1.19-4.73
	c-1.58-4.5-2.76-9.11-3.13-13.88c-0.28-3.6,0.14-5.96,2.09-7.65c3.65-1.69,7.68-2.79,9.81-3.13c0.78-0.13,1.42-0.38,1.92-0.74
	c5.3-0.93,10.61-1.6,15.59-4.18C69.99,100.6,65.07,92.19,59.51,95.08z"/>
<path class="st1" d="M66.64,46.64c7.22,16.44,4.16,41.25-10.18,39.99c-17.22-1.51-29.12-3.1-36.35-19.54S17.45,32.75,30.3,27.1
	S59.42,30.2,66.64,46.64z"/>
<path class="st7" d="M75.85,174.6H45.19l-3.14,5.43c-2.98,5.16,0.74,11.61,6.7,11.61h23.53c5.96,0,9.68-6.45,6.7-11.61L75.85,174.6z
	"/>
<path class="st4" d="M31.6,20.91c0.39-0.07,0.77-0.14,1.16-0.21c1.07-0.19,2.17-0.27,3.26-0.19c1.9,0.15,3.74,0.9,4.87,2.49
	c0.47,0.65,0.79,1.4,1,2.17c0.44,1.6,0.41,3.29-0.3,4.81c-0.85,1.83-2.5,2.97-3.78,4.46c-1.16,1.36-2.23,2.76-3.14,4.3
	c-1.73,2.92-2.87,6.16-3.49,9.49c-0.62,3.39-0.71,6.85-0.45,10.28c0.27,3.57,0.9,7.1,1.75,10.58c0.86,3.51,1.94,6.97,3.13,10.38
	c1.14,3.26,2.4,6.49,3.69,9.7c0.19,0.47,0.38,0.94,0.57,1.41c0.16,0.4,0.28,0.99,0.54,1.34c1.16,1.55,1.58,3.84,0.38,5.4
	c-3.19,4.17-6.94,7.65-11.57,10.2c-1.3,0.72-2.83,0.7-4.27,0.71c-1.44,0-2.61-0.28-3.7-1.31c-1.61-1.53-3.13-3.16-4.54-4.88
	c-1.39-1.69-2.68-3.46-3.85-5.3c-1.16-1.81-2.21-3.7-3.14-5.64c-0.93-1.92-1.74-3.89-2.44-5.9c-0.69-2-1.27-4.03-1.73-6.09
	c-0.46-2.05-0.8-4.13-1.02-6.22c-0.22-2.08-0.33-4.18-0.32-6.28c0.01-2.1,0.14-4.19,0.39-6.27c0.25-2.08,0.61-4.15,1.09-6.19
	c0.48-2.05,1.08-4.07,1.8-6.05c0.72-1.99,1.55-3.94,2.5-5.84c0.95-1.91,2.02-3.77,3.2-5.56c1.19-1.81,2.5-3.55,3.9-5.21
	c1.43-1.69,2.97-3.29,4.6-4.79C24.58,24.05,27.68,21.66,31.6,20.91z"/>
<g>
	<g>
		<path class="st8" d="M46.63,51.13c-0.05,1.15,0.59,2.29,1.59,2.86c0.15,0.08,0.31,0.11,0.48,0.09c0.15-0.02,0.33-0.08,0.43-0.21
			c0.18-0.22,0.33-0.46,0.39-0.74c0.05-0.28,0.04-0.54-0.01-0.83c-0.08-0.4-0.29-0.8-0.52-1.14c-0.13-0.19-0.26-0.39-0.42-0.54
			c-0.28-0.27-0.66-0.42-1.04-0.33c-0.35,0.08-0.61,0.36-0.72,0.69c-0.13,0.41,0.04,0.84,0.4,1.06c0.34,0.2,0.84,0.08,1.03-0.27
			c0.19-0.36,0.09-0.81-0.27-1.03c-0.01,0-0.01-0.01-0.02-0.01c0.05,0.04,0.1,0.08,0.15,0.12c-0.01-0.01-0.02-0.02-0.03-0.03
			c0.04,0.05,0.08,0.1,0.12,0.15c0-0.01-0.01-0.01-0.01-0.02c0.03,0.06,0.05,0.12,0.08,0.18c-0.01-0.01-0.01-0.03-0.01-0.04
			c0.01,0.07,0.02,0.13,0.03,0.2c0-0.01,0-0.03,0-0.04c-0.01,0.07-0.02,0.13-0.03,0.2c0-0.02,0.01-0.04,0.02-0.07
			c-0.03,0.06-0.05,0.12-0.08,0.18c0.01-0.02,0.02-0.04,0.04-0.06c-0.04,0.05-0.08,0.1-0.12,0.15c0.02-0.02,0.03-0.04,0.05-0.05
			c-0.05,0.04-0.1,0.08-0.15,0.12c0.02-0.02,0.04-0.03,0.06-0.04c-0.06,0.03-0.12,0.05-0.18,0.08c0.02-0.01,0.03-0.01,0.05-0.01
			c-0.07,0.01-0.13,0.02-0.2,0.03c0.02,0,0.04,0,0.06,0c-0.07-0.01-0.13-0.02-0.2-0.03c0.03,0.01,0.06,0.01,0.09,0.03
			c-0.06-0.03-0.12-0.05-0.18-0.08c0.04,0.02,0.08,0.04,0.11,0.07c-0.05-0.04-0.1-0.08-0.15-0.12c0.07,0.06,0.13,0.13,0.19,0.2
			c-0.04-0.05-0.08-0.1-0.12-0.15c0.19,0.25,0.37,0.52,0.49,0.82c-0.03-0.06-0.05-0.12-0.08-0.18c0.06,0.15,0.11,0.31,0.14,0.47
			c-0.01-0.07-0.02-0.13-0.03-0.2c0.01,0.1,0.01,0.2,0,0.29c0.01-0.07,0.02-0.13,0.03-0.2c-0.01,0.07-0.03,0.15-0.06,0.22
			c0.03-0.06,0.05-0.12,0.08-0.18c-0.03,0.07-0.07,0.14-0.12,0.2c0.04-0.05,0.08-0.1,0.12-0.15c-0.01,0.01-0.01,0.02-0.02,0.03
			c0.3-0.04,0.61-0.08,0.91-0.12c-0.1-0.06-0.2-0.12-0.29-0.19c0.05,0.04,0.1,0.08,0.15,0.12c-0.15-0.12-0.29-0.26-0.41-0.41
			c0.04,0.05,0.08,0.1,0.12,0.15c-0.13-0.17-0.24-0.36-0.33-0.56c0.03,0.06,0.05,0.12,0.08,0.18c-0.08-0.2-0.14-0.41-0.17-0.63
			c0.01,0.07,0.02,0.13,0.03,0.2c-0.02-0.14-0.02-0.27-0.02-0.41c0.02-0.39-0.36-0.77-0.75-0.75
			C46.96,50.39,46.65,50.71,46.63,51.13L46.63,51.13z"/>
	</g>
</g>
<g>
	<g>
		<path class="st8" d="M60.25,46.47c0.08,0.64,0.24,1.22,0.49,1.81c0.23,0.53,0.55,1.01,0.92,1.46c0.29,0.35,0.99,0.26,1.18-0.15
			c0.32-0.69,0.39-1.47,0.16-2.21c-0.23-0.72-0.69-1.35-1.35-1.74c-0.34-0.2-0.84-0.09-1.03,0.27c-0.19,0.36-0.09,0.81,0.27,1.03
			c0.06,0.03,0.11,0.07,0.16,0.1c0.12,0.08-0.1-0.09-0.04-0.03c0.02,0.02,0.05,0.04,0.07,0.06c0.05,0.04,0.09,0.09,0.14,0.14
			c0.02,0.02,0.04,0.05,0.06,0.07c0.08,0.09-0.01-0.01-0.03-0.05c0.07,0.11,0.15,0.21,0.21,0.33c0.01,0.03,0.03,0.06,0.04,0.09
			c0.03,0.06,0.03,0.14-0.02-0.05c0.02,0.06,0.05,0.12,0.07,0.18c0.02,0.06,0.04,0.12,0.05,0.19c0.01,0.05,0.01,0.15,0.04,0.19
			c-0.01-0.01-0.02-0.19-0.01-0.08c0,0.04,0.01,0.08,0.01,0.12c0,0.06,0,0.12,0,0.17c0,0.06-0.01,0.13-0.01,0.19
			c0,0.09,0.03-0.19,0.01-0.07c-0.01,0.03-0.01,0.06-0.02,0.09c-0.01,0.06-0.03,0.13-0.05,0.19c-0.01,0.03-0.02,0.06-0.03,0.09
			c-0.04,0.13,0.07-0.17,0.01-0.04c0.39-0.05,0.79-0.1,1.18-0.15c-0.02-0.03-0.04-0.05-0.06-0.08c-0.05-0.06-0.04-0.05,0.03,0.04
			c-0.03-0.01-0.1-0.13-0.11-0.16c-0.07-0.09-0.13-0.19-0.19-0.29c-0.12-0.2-0.23-0.41-0.33-0.63c-0.02-0.05-0.01-0.03,0.03,0.07
			c-0.01-0.03-0.02-0.06-0.04-0.09c-0.02-0.06-0.05-0.12-0.07-0.18c-0.04-0.11-0.07-0.22-0.1-0.33c-0.03-0.11-0.06-0.22-0.08-0.33
			c-0.01-0.06-0.03-0.13-0.04-0.19c-0.01-0.05-0.04-0.28-0.01-0.04c-0.03-0.21-0.07-0.38-0.22-0.53c-0.13-0.13-0.34-0.23-0.53-0.22
			c-0.19,0.01-0.4,0.07-0.53,0.22C60.35,46.08,60.23,46.28,60.25,46.47L60.25,46.47z"/>
	</g>
</g>
<g>
	<g>
		<path class="st8" d="M56.66,71.26c1.04,0.08,2.04,0.45,3.09,0.4c1.06-0.05,2.08-0.41,3.13-0.54c0.38-0.05,0.38-0.65,0-0.6
			c-1.05,0.12-2.07,0.48-3.13,0.54c-1.05,0.05-2.06-0.32-3.09-0.4C56.27,70.63,56.28,71.23,56.66,71.26L56.66,71.26z"/>
	</g>
</g>
<path class="st9" d="M58.16,55.7l0.68,4.24c0.14,0.86,1.07,1.34,1.85,0.95l2.33-1.18c0.78-0.39,0.95-1.43,0.34-2.05l-3.01-3.07
	C59.47,53.7,57.96,54.46,58.16,55.7z"/>
</svg>
