<?xml version="1.0" encoding="utf-8"?>
<!-- Generator: Adobe Illustrator 24.3.0, SVG Export Plug-In . SVG Version: 6.00 Build 0)  -->
<svg version="1.1" id="Layer_1" xmlns="http://www.w3.org/2000/svg" xmlns:xlink="http://www.w3.org/1999/xlink" x="0px" y="0px"
	 viewBox="0 0 1367 679.85" style="enable-background:new 0 0 1367 679.85;" xml:space="preserve">
<style type="text/css">
	.st0{fill:#E3EBF6;}
	.st1{fill:#845C32;}
	.st2{fill:#F7CC1A;}
	.st3{fill:#010101;}
	.st4{fill:#6F4D28;}
	.st5{fill:#232323;}
	.st6{fill:#614220;}
	.st7{fill:#303030;}
	.st8{fill:#DFA942;}
	.st9{fill:#F3F1F1;}
	.st10{fill:#BEBDBB;}
	.st11{fill:#D2D0CE;}
	.st12{fill:#AE8046;}
	.st13{fill:#55958E;}
	.st14{fill:#2B2C2B;}
	.st15{fill:none;stroke:#D2D2CE;stroke-miterlimit:10;}
	.st16{fill:#D2D2CE;}
	.st17{fill:#F37464;}
	.st18{fill:#F2B63D;}
	.st19{fill:#333232;}
	.st20{fill:#87C878;}
	.st21{fill:#A27040;}
	.st22{opacity:0.3;fill:none;stroke:#282828;stroke-width:2;stroke-miterlimit:10;}
	.st23{fill:#3A3F41;}
	.st24{fill:#562A16;}
</style>
<rect x="764.89" y="293.16" transform="matrix(0.866 -0.5 0.5 0.866 -52.867 433.8301)" class="st0" width="36.44" height="44.8"/>
<path class="st1" d="M764.77,338.62l-0.78-0.78c-2.5-1.85-2.67-5.91-0.38-9.01l1.84-2.48c2.3-3.1,6.22-4.13,8.73-2.28l0.8,0.59
	c2.5,1.85,2.67,5.91,0.38,9.01l-1.84,2.49C771.22,339.26,767.27,340.47,764.77,338.62z"/>
<path class="st2" d="M774,336.85c-0.36-1.92-3.77-2.85-5.09-4.06c-1.67-1.54-5.32-6.51-7.56-3.29c-1.25,1.79-2.45,3.59-3.85,5.27
	c-4.15,5-9.17,9.18-13.39,14.11c-4.59,5.36-8.61,11.29-12.9,16.89c-0.23,0.3-0.46,0.61-0.7,0.92c-1.83,1.97-3.67,3.94-5.51,5.89
	c-3.89,4.12-7.94,8.12-12.88,10.68c-4.18,1.15-8.51,1.67-12.6,3.1c-4.62,1.61-8.17,4.67-10.51,8.58c-0.41,0.3-0.82,0.6-1.22,0.92
	c-4.01,3.15-5.44,6.77-4.79,11.15l-0.1,0.01l3.95,56.6l62.34-5.8l-6.77-47.28c3.73-10.42,7.45-20.85,11.18-31.27
	c4.9-13.71,8.76-29.18,18.61-40.32C772.72,338.34,774.15,337.68,774,336.85z"/>
<g>
	<g>
		<path class="st3" d="M1148.42,398.32c0.5,2.4,1.01,4.8,1.51,7.19c0.16,0.77,1.11,1.29,1.85,1.05c0.81-0.26,1.22-1.02,1.05-1.85
			c-0.5-2.4-1.01-4.8-1.51-7.19c-0.16-0.77-1.11-1.29-1.85-1.05C1148.66,396.74,1148.25,397.5,1148.42,398.32L1148.42,398.32z"/>
	</g>
</g>
<rect x="689.89" y="370.11" class="st4" width="26.3" height="22.4"/>
<path class="st5" d="M721.38,321.92c-6.14-7.15-13.31-14.76-25.23-12.88c-7.53,1.19-4.34,10.54,3.17,9.36
	c5.14-0.81,10.62,6.93,12.93,9.82c3.3,4.14,6.11,9.3,3.12,14.1c-3.47,5.56,6.83,10.48,10.3,4.9
	C731.05,338.57,727.9,329.52,721.38,321.92z"/>
<path class="st5" d="M714.64,317.79c-1.93-1.57-4.7,1.17-2.75,2.75c6.76,5.52,10.45,13.32,10.28,22.06c-0.05,2.51,3.85,2.51,3.9,0
	C726.25,332.94,722.15,323.91,714.64,317.79z"/>
<path class="st6" d="M753.61,625.94l-11.39-1.4c-1.06-0.13-1.81-1.1-1.68-2.15l2.18-17.79c0.13-1.06,1.1-1.81,2.15-1.68l11.39,1.4
	c1.06,0.13,1.81,1.1,1.68,2.15l-2.18,17.79C755.64,625.32,754.67,626.07,753.61,625.94z"/>
<path class="st6" d="M703.69,627.01l-11.36-1.64c-1.05-0.15-1.79-1.14-1.64-2.19l2.56-17.74c0.15-1.05,1.14-1.79,2.19-1.64
	l11.36,1.64c1.05,0.15,1.79,1.14,1.64,2.19l-2.56,17.74C705.73,626.42,704.74,627.16,703.69,627.01z"/>
<path class="st7" d="M782.42,607.68l-50.61,7.05l-0.89-61.5c-0.03-1.83-0.22-3.66-0.58-5.46l-15.81-78.51l33.81-18.32l16.93,88.73
	c0.15,0.8,0.34,1.59,0.57,2.37l8.81,33.15L782.42,607.68z"/>
<path class="st7" d="M727.88,615.55l-48.7-1.05l9.32-63.56c0.28-1.89,0.4-3.81,0.35-5.72l-1.88-85.5l31.17,1.95l4.85,80.94
	c0.01,0.85,0.06,1.7,0.14,2.54l2.79,35.62L727.88,615.55z"/>
<polygon class="st7" points="752.49,482.87 691.38,490.79 686.83,458.94 747.94,451.02 "/>
<path class="st0" d="M735.59,467.1l-11.44-19.82v-14.14c0-2.59-2.12-4.71-4.71-4.71h-4.87c-2.59,0-4.71,2.12-4.71,4.71v14.56
	l-11.2,19.4c-2.98,5.16,0.74,11.61,6.7,11.61h23.53C734.85,478.71,738.57,472.26,735.59,467.1z"/>
<path class="st1" d="M699.97,449.64l0.1-1.1c-0.23-3.11,3.08-5.9,7.35-6.21l3.42-0.25c4.27-0.31,7.95,1.97,8.18,5.08l0.07,1
	c0.23,3.11-3.08,5.9-7.35,6.21l-3.42,0.25C704.05,454.92,700.2,452.74,699.97,449.64z"/>
<path class="st8" d="M707.85,440.49c-9.13,1.03-18.09-0.13-26.56-3.77c0,0-0.01,0-0.01,0c-1.86-5.58,3.21-14.73,5.14-18.99
	c0.64-1.41-0.08-2.72-1.12-3.35c0.1-0.38,0.18-0.78,0.23-1.2c0.35-2.83,0.25-5.82,0.16-8.76c0.24-2.24,0.3-4.52,0.17-6.84
	c1.91-1.27,3.89-2.43,5.94-3.45c2.8-1.4,0.34-5.61-2.46-4.2c-17.4,8.71-32.68,27.73-32.75,47.93c-0.08,27,36.59,21.87,53.05,16.96
	c0.29-0.09,0.48-0.35,0.48-0.64l0.14-11.25C710.3,441.72,709.15,440.34,707.85,440.49z"/>
<rect x="943.68" class="st0" width="423.32" height="662.3"/>
<polygon class="st9" points="1004.98,178.44 1003.4,168.36 994.91,176.81 "/>
<polygon class="st10" points="1011.3,662.3 992.64,662.71 965.92,498.31 984.19,495.34 "/>
<polygon class="st10" points="831.12,662.3 849.78,662.71 876.5,498.31 858.23,495.34 "/>
<path class="st11" d="M990.36,504.52H853.03c-4.02,0-7.31-3.29-7.31-7.31v-7.79c0-4.02,3.29-7.31,7.31-7.31h137.33
	c4.02,0,7.31,3.29,7.31,7.31v7.79C997.67,501.23,994.38,504.52,990.36,504.52z"/>
<path class="st12" d="M944.51,474.98l-11.39-1.4c-1.06-0.13-1.81-1.1-1.68-2.15l2.18-17.79c0.13-1.06,1.1-1.81,2.15-1.68l11.39,1.4
	c1.06,0.13,1.81,1.1,1.68,2.15l-2.18,17.79C946.53,474.35,945.57,475.11,944.51,474.98z"/>
<path class="st12" d="M894.59,476.04l-11.36-1.64c-1.05-0.15-1.79-1.14-1.64-2.19l2.56-17.74c0.15-1.05,1.14-1.79,2.19-1.64
	l11.36,1.64c1.05,0.15,1.79,1.14,1.64,2.19l-2.56,17.74C896.63,475.46,895.64,476.19,894.59,476.04z"/>
<path class="st13" d="M968.76,456.72l-48.2,7.05l-0.85-61.5c-0.03-1.83-0.21-3.66-0.56-5.46L904.1,318.3l30.74-5.15l17.58,75.55
	c0.14,0.8,0.32,1.59,0.54,2.37l8.39,33.15L968.76,456.72z"/>
<path class="st13" d="M918.77,464.58l-48.7-1.05l9.32-63.56c0.28-1.89,0.4-3.81,0.35-5.72l-1.88-83.55h31.17l4.85,80.94
	c0.01,0.85,0.06,1.7,0.14,2.54l2.79,35.62L918.77,464.58z"/>
<path class="st12" d="M811.53,292.23l-0.43-1.3c-1.65-3.51-0.12-7.73,3.39-9.37l2.81-1.32c3.51-1.65,7.73-0.12,9.37,3.39l0.53,1.13
	c1.65,3.51,0.12,7.73-3.39,9.37l-2.81,1.32C817.49,297.09,813.18,295.74,811.53,292.23z"/>
<path class="st14" d="M897.77,237.71c2.85-3.71-0.81-10.54-6.74-8.78c-28.15,8.4-40.79,39.52-68.98,47.02
	c-2.44,0.65-4.1,3.4-3.91,5.74c0.35,4.22,2.46,7.26,3.69,11.32c1.16,3.83,5.62,2.92,8.15,1.45c10.43-6.07,21.44-10.81,33.02-14.42
	c10.79-3.36,21.6-6.41,31.13-12.57c2.41-1.56,2.92-3.89,2.29-5.95c0.44-0.62,0.77-1.38,0.92-2.3c1.09-6.73,1.35-13.45,0.68-20.23
	C897.97,238.53,897.89,238.11,897.77,237.71z"/>
<path class="st13" d="M913.34,486.01H883.3c-2.46,0-4.46-2.37-4.46-5.29v-6.82c0-3.32,2.55-5.82,5.3-5.19l30.04,6.82
	c1.94,0.44,3.4,2.34,3.6,4.67l0,0C918.04,483.31,915.98,486.01,913.34,486.01z"/>
<path class="st13" d="M963.01,486.98h-30.04c-2.46,0-4.46-2.37-4.46-5.29v-6.82c0-3.32,2.55-5.82,5.3-5.19l30.04,6.82
	c1.94,0.44,3.4,2.34,3.6,4.67l0,0C967.71,484.28,965.65,486.98,963.01,486.98z"/>
<line class="st15" x1="811.64" y1="641.85" x2="1060.97" y2="641.85"/>
<rect y="632.59" class="st16" width="1366" height="47.26"/>
<path class="st17" d="M970.01,136.47l-5.91,5.07c-0.93,0.8-2.35,0.69-3.15-0.24l-6.38-7.45c-0.8-0.93-0.69-2.35,0.24-3.15l5.91-5.07
	c0.93-0.8,2.35-0.69,3.15,0.24l6.38,7.45C971.06,134.25,970.95,135.67,970.01,136.47z"/>
<rect x="975.52" y="129.28" transform="matrix(0.7252 -0.6885 0.6885 0.7252 163.3515 718.5141)" class="st18" width="12.66" height="50.65"/>
<path class="st12" d="M979.33,170.6l-0.77-0.41c-3.51-1.87-4.86-6.27-2.99-9.79l1.28-2.41c1.87-3.51,6.27-4.86,9.79-2.99l0.77,0.41
	c3.51,1.87,4.86,6.27,2.99,9.79l-1.28,2.41C987.25,171.13,982.85,172.47,979.33,170.6z"/>
<polygon class="st19" points="1004.91,178.11 1004,172.35 999.15,177.18 "/>
<path class="st7" d="M722.44,636.98H692.4c-2.46,0-4.46-2.37-4.46-5.29v-6.82c0-3.32,2.55-5.82,5.3-5.19l30.04,6.82
	c1.94,0.44,3.4,2.34,3.6,4.67v0C727.14,634.27,725.08,636.98,722.44,636.98z"/>
<path class="st7" d="M772.11,637.95h-30.04c-2.46,0-4.46-2.37-4.46-5.29v-6.82c0-3.32,2.55-5.82,5.3-5.19l30.04,6.82
	c1.94,0.44,3.4,2.34,3.6,4.67l0,0C776.81,635.25,774.75,637.95,772.11,637.95z"/>
<path class="st2" d="M716.12,382.14c-8.88,4.61-20,2.46-28.28,8.5c-4.84,2.63-9.08,6.24-10.76,10.68c-1.83,4.86,0.03,9,1.89,13.52
	c2.34,5.7,4.69,11.39,7.03,17.09c2.35,5.72,11.78,3.21,9.39-2.59c-0.61-1.49-1.22-2.98-1.84-4.47c1.25-1.03,1.91-2.68,1.19-4.73
	c-1.58-4.5-2.76-9.11-3.13-13.88c-0.28-3.6,0.14-5.96,2.09-7.65c3.65-1.69,7.68-2.79,9.81-3.13c0.78-0.13,1.42-0.38,1.92-0.74
	c5.3-0.93,10.61-1.6,15.59-4.18C726.6,387.65,721.68,379.25,716.12,382.14z"/>
<path class="st1" d="M723.25,333.7c7.22,16.44,4.16,41.25-10.18,39.99c-17.22-1.51-29.12-3.1-36.35-19.54s-2.67-34.34,10.18-39.99
	C699.75,308.51,716.02,317.26,723.25,333.7z"/>
<path class="st20" d="M732.46,461.66H701.8l-3.14,5.43c-2.98,5.16,0.74,11.61,6.7,11.61h23.53c5.96,0,9.68-6.45,6.7-11.61
	L732.46,461.66z"/>
<path class="st5" d="M688.21,307.97c0.39-0.07,0.77-0.14,1.16-0.21c1.07-0.19,2.17-0.27,3.26-0.19c1.9,0.15,3.74,0.9,4.87,2.49
	c0.47,0.65,0.79,1.4,1,2.17c0.44,1.6,0.41,3.29-0.3,4.81c-0.85,1.83-2.5,2.97-3.78,4.46c-1.16,1.36-2.23,2.76-3.14,4.3
	c-1.73,2.92-2.87,6.16-3.49,9.49c-0.62,3.39-0.71,6.85-0.45,10.28c0.27,3.57,0.9,7.1,1.75,10.58c0.86,3.51,1.94,6.97,3.13,10.38
	c1.14,3.26,2.4,6.49,3.69,9.7c0.19,0.47,0.38,0.94,0.57,1.41c0.16,0.4,0.28,0.99,0.54,1.34c1.16,1.55,1.58,3.84,0.38,5.4
	c-3.19,4.17-6.94,7.65-11.57,10.2c-1.3,0.72-2.83,0.7-4.27,0.71c-1.44,0-2.61-0.28-3.7-1.31c-1.61-1.53-3.13-3.16-4.54-4.88
	c-1.39-1.69-2.68-3.46-3.85-5.3c-1.16-1.81-2.21-3.7-3.14-5.64c-0.93-1.92-1.74-3.89-2.44-5.9c-0.69-2-1.27-4.03-1.73-6.09
	c-0.46-2.05-0.8-4.13-1.02-6.22c-0.22-2.08-0.33-4.18-0.32-6.28c0.01-2.1,0.14-4.19,0.39-6.27c0.25-2.08,0.61-4.15,1.09-6.19
	c0.48-2.05,1.08-4.07,1.8-6.05c0.72-1.99,1.55-3.94,2.5-5.84c0.96-1.91,2.02-3.77,3.2-5.56c1.19-1.81,2.5-3.55,3.9-5.21
	c1.43-1.69,2.97-3.29,4.6-4.79C681.18,311.1,684.28,308.72,688.21,307.97z"/>
<g>
	<g>
		<path class="st3" d="M703.24,338.18c-0.05,1.15,0.59,2.29,1.59,2.86c0.15,0.08,0.31,0.11,0.48,0.09c0.15-0.02,0.33-0.08,0.43-0.21
			c0.18-0.22,0.33-0.46,0.39-0.74c0.05-0.28,0.04-0.54-0.01-0.83c-0.08-0.4-0.29-0.8-0.52-1.14c-0.13-0.19-0.26-0.39-0.42-0.54
			c-0.28-0.27-0.66-0.42-1.04-0.33c-0.35,0.08-0.61,0.36-0.72,0.69c-0.13,0.41,0.04,0.84,0.4,1.06c0.34,0.2,0.84,0.08,1.03-0.27
			c0.19-0.36,0.09-0.81-0.27-1.03c-0.01,0-0.01-0.01-0.02-0.01c0.05,0.04,0.1,0.08,0.15,0.12c-0.01-0.01-0.02-0.02-0.03-0.03
			c0.04,0.05,0.08,0.1,0.12,0.15c0-0.01-0.01-0.01-0.01-0.02c0.03,0.06,0.05,0.12,0.08,0.18c-0.01-0.01-0.01-0.03-0.01-0.04
			c0.01,0.07,0.02,0.13,0.03,0.2c0-0.01,0-0.03,0-0.04c-0.01,0.07-0.02,0.13-0.03,0.2c0-0.02,0.01-0.04,0.02-0.07
			c-0.03,0.06-0.05,0.12-0.08,0.18c0.01-0.02,0.02-0.04,0.04-0.06c-0.04,0.05-0.08,0.1-0.12,0.15c0.02-0.02,0.03-0.04,0.05-0.05
			c-0.05,0.04-0.1,0.08-0.15,0.12c0.02-0.02,0.04-0.03,0.06-0.04c-0.06,0.03-0.12,0.05-0.18,0.08c0.02-0.01,0.03-0.01,0.05-0.01
			c-0.07,0.01-0.13,0.02-0.2,0.03c0.02,0,0.04,0,0.06,0c-0.07-0.01-0.13-0.02-0.2-0.03c0.03,0.01,0.06,0.01,0.09,0.03
			c-0.06-0.03-0.12-0.05-0.18-0.08c0.04,0.02,0.08,0.04,0.11,0.07c-0.05-0.04-0.1-0.08-0.15-0.12c0.07,0.06,0.13,0.13,0.19,0.2
			c-0.04-0.05-0.08-0.1-0.12-0.15c0.19,0.25,0.37,0.52,0.49,0.82c-0.03-0.06-0.05-0.12-0.08-0.18c0.06,0.15,0.11,0.31,0.14,0.47
			c-0.01-0.07-0.02-0.13-0.03-0.2c0.01,0.1,0.01,0.2,0,0.29c0.01-0.07,0.02-0.13,0.03-0.2c-0.01,0.07-0.03,0.15-0.06,0.22
			c0.03-0.06,0.05-0.12,0.08-0.18c-0.03,0.07-0.07,0.14-0.12,0.2c0.04-0.05,0.08-0.1,0.12-0.15c-0.01,0.01-0.01,0.02-0.02,0.03
			c0.3-0.04,0.61-0.08,0.91-0.12c-0.1-0.06-0.2-0.12-0.29-0.19c0.05,0.04,0.1,0.08,0.15,0.12c-0.15-0.12-0.29-0.26-0.41-0.41
			c0.04,0.05,0.08,0.1,0.12,0.15c-0.13-0.17-0.24-0.36-0.33-0.56c0.03,0.06,0.05,0.12,0.08,0.18c-0.08-0.2-0.14-0.41-0.17-0.63
			c0.01,0.07,0.02,0.13,0.03,0.2c-0.02-0.14-0.02-0.27-0.02-0.41c0.02-0.39-0.36-0.77-0.75-0.75
			C703.57,337.45,703.26,337.76,703.24,338.18L703.24,338.18z"/>
	</g>
</g>
<g>
	<g>
		<path class="st3" d="M716.86,333.53c0.08,0.64,0.24,1.22,0.49,1.81c0.23,0.53,0.55,1.01,0.92,1.46c0.29,0.35,0.99,0.26,1.18-0.15
			c0.32-0.69,0.39-1.47,0.16-2.21c-0.23-0.72-0.69-1.35-1.35-1.74c-0.34-0.2-0.84-0.09-1.03,0.27c-0.19,0.36-0.09,0.81,0.27,1.03
			c0.06,0.03,0.11,0.07,0.16,0.1c0.12,0.08-0.1-0.09-0.04-0.03c0.02,0.02,0.05,0.04,0.07,0.06c0.05,0.04,0.09,0.09,0.14,0.14
			c0.02,0.02,0.04,0.05,0.06,0.07c0.08,0.09-0.01-0.01-0.03-0.05c0.07,0.11,0.15,0.21,0.21,0.33c0.01,0.03,0.03,0.06,0.04,0.09
			c0.03,0.06,0.03,0.14-0.02-0.05c0.02,0.06,0.05,0.12,0.07,0.18c0.02,0.06,0.04,0.12,0.05,0.19c0.01,0.05,0.01,0.15,0.04,0.19
			c-0.01-0.01-0.02-0.19-0.01-0.08c0,0.04,0.01,0.08,0.01,0.12c0,0.06,0,0.12,0,0.17c0,0.06-0.01,0.13-0.01,0.19
			c0,0.09,0.03-0.19,0.01-0.07c-0.01,0.03-0.01,0.06-0.02,0.09c-0.01,0.06-0.03,0.13-0.05,0.19c-0.01,0.03-0.02,0.06-0.03,0.09
			c-0.04,0.13,0.07-0.17,0.01-0.04c0.39-0.05,0.79-0.1,1.18-0.15c-0.02-0.03-0.04-0.05-0.06-0.08c-0.05-0.06-0.04-0.05,0.03,0.04
			c-0.03-0.01-0.1-0.13-0.11-0.16c-0.07-0.09-0.13-0.19-0.19-0.29c-0.12-0.2-0.23-0.41-0.33-0.63c-0.02-0.05-0.01-0.03,0.03,0.07
			c-0.01-0.03-0.02-0.06-0.04-0.09c-0.02-0.06-0.05-0.12-0.07-0.18c-0.04-0.11-0.07-0.22-0.1-0.33c-0.03-0.11-0.06-0.22-0.08-0.33
			c-0.01-0.06-0.03-0.13-0.04-0.19c-0.01-0.05-0.04-0.28-0.01-0.04c-0.03-0.21-0.07-0.38-0.22-0.53c-0.13-0.13-0.34-0.23-0.53-0.22
			c-0.19,0.01-0.4,0.07-0.53,0.22C716.95,333.13,716.83,333.34,716.86,333.53L716.86,333.53z"/>
	</g>
</g>
<g>
	<g>
		<path class="st3" d="M713.27,358.31c1.04,0.08,2.04,0.45,3.09,0.4c1.06-0.05,2.08-0.41,3.13-0.54c0.38-0.04,0.38-0.65,0-0.6
			c-1.05,0.12-2.07,0.48-3.13,0.54c-1.05,0.05-2.06-0.32-3.09-0.4C712.88,357.68,712.88,358.29,713.27,358.31L713.27,358.31z"/>
	</g>
</g>
<path class="st21" d="M714.76,342.76l0.68,4.24c0.14,0.86,1.07,1.34,1.85,0.95l2.33-1.18c0.78-0.39,0.95-1.43,0.34-2.05l-3.01-3.07
	C716.08,340.76,714.57,341.52,714.76,342.76z"/>
<line class="st22" x1="1024.03" y1="115.42" x2="1367" y2="115.42"/>
<line class="st22" x1="1024.03" y1="188.66" x2="1367" y2="188.66"/>
<line class="st22" x1="1024.03" y1="261.9" x2="1367" y2="261.9"/>
<line class="st22" x1="1024.03" y1="335.14" x2="1367" y2="335.14"/>
<line class="st22" x1="1024.03" y1="408.39" x2="1367" y2="408.39"/>
<line class="st22" x1="1024.03" y1="481.63" x2="1367" y2="481.63"/>
<path class="st23" d="M955.69,256.58c-0.54-7.66,0.74-15.28,3.68-21.87l28.07-62.83l-13.1-11.4l-33.11,54.82
	c-3.5,5.79-8.83,9.34-14.67,9.75l-7.93,0.56c-2.2-0.49-4.52-0.8-6.98-0.88h0c-5.26-0.16-10.15,0.71-14.62,2.41l-6.14,0.44
	c-4.45,0.32-4.99,2.38-7.13,8.09c-7.54,7.31-12.65,17.65-14.57,29.05c-5.11,30.32-36.76,117.36-36.76,117.36s13.51-9.14,30.49-16.23
	c16.06-6.71,35.4-11.34,43.28-13.7c12.98-3.9,66.8,0.71,66.8,0.71s-7.9-32.13-14.67-59.17L955.69,256.58z"/>
<path class="st24" d="M950.48,236.54c0,0-20.89-0.63-31.44,2.54c-6.4,1.92-22.13,5.68-35.18,11.13c-13.8,5.77-22.85,0.64-22.85,0.64
	s23.8-58.18,27.95-82.82c3.06-18.18,16.09-33.05,34.52-32.5h0c18.43,0.56,31.32,15.76,32.5,34.52
	C957.01,186.7,950.48,236.54,950.48,236.54z"/>
</svg>
