<svg id="Layer_1" data-name="Layer 1" xmlns="http://www.w3.org/2000/svg" viewBox="0 0 710.39 662.71"><defs><style>.cls-1{fill:#e3ebf6;}.cls-2{fill:#845c32;}.cls-3{fill:#f7cc1a;}.cls-4{fill:#010101;}.cls-5{fill:#6f4d28;}.cls-6{fill:#232323;}.cls-7{fill:#614220;}.cls-8{fill:#303030;}.cls-9{fill:#dfa942;}.cls-10{fill:#f3f1f1;}.cls-11{fill:#bebdbb;}.cls-12{fill:#d2d0ce;}.cls-13{fill:#ae8046;}.cls-14{fill:#55958e;}.cls-15{fill:#2b2c2b;}.cls-16{fill:#f37464;}.cls-17{fill:#f2b63d;}.cls-18{fill:#333232;}.cls-19{fill:#87c878;}.cls-20{fill:#a27040;}.cls-21{fill:none;stroke:#282828;stroke-miterlimit:10;stroke-width:2px;opacity:0.3;}.cls-22{fill:#3a3f41;}.cls-23{fill:#562a16;}</style></defs><rect class="cls-1" x="108.28" y="293.16" width="36.44" height="44.8" transform="translate(-140.84 105.53) rotate(-30)"/><path class="cls-2" d="M108.16,338.62l-.78-.78c-2.51-1.86-2.68-5.91-.38-9l1.83-2.49c2.3-3.1,6.23-4.13,8.73-2.28l.8.6c2.51,1.85,2.68,5.9.38,9l-1.84,2.48C114.61,339.26,110.66,340.47,108.16,338.62Z"/><path class="cls-3" d="M117.39,336.85c-.35-1.92-3.77-2.85-5.09-4.06-1.66-1.55-5.31-6.52-7.56-3.29-1.25,1.79-2.45,3.59-3.85,5.27-4.15,5-9.17,9.18-13.4,14.11-4.59,5.36-8.61,11.29-12.9,16.89l-.7.92c-1.83,2-3.66,3.94-5.51,5.9-3.89,4.12-7.94,8.12-12.88,10.67-4.18,1.15-8.5,1.67-12.6,3.1a19.66,19.66,0,0,0-10.51,8.57l-1.22.92c-4,3.15-5.44,6.78-4.79,11.16h-.1l3.95,56.6,62.33-5.81-6.77-47.28L97,379.26c4.9-13.71,8.76-29.18,18.61-40.32C116.11,338.34,117.55,337.68,117.39,336.85Z"/><path class="cls-4" d="M491.81,398.32l1.51,7.19a1.52,1.52,0,0,0,1.85,1.05,1.54,1.54,0,0,0,1.05-1.84l-1.51-7.2a1.51,1.51,0,0,0-1.85-1,1.54,1.54,0,0,0-1.05,1.84Z"/><rect class="cls-5" x="33.28" y="370.11" width="26.3" height="22.4"/><path class="cls-6" d="M64.77,321.92c-6.14-7.15-13.31-14.76-25.24-12.88-7.53,1.19-4.34,10.54,3.18,9.36,5.14-.81,10.62,6.93,12.92,9.81,3.3,4.15,6.11,9.3,3.12,14.1-3.47,5.56,6.83,10.48,10.3,4.9C74.44,338.57,71.29,329.52,64.77,321.92Z"/><path class="cls-6" d="M58,317.79c-1.93-1.57-4.7,1.17-2.76,2.75a27.29,27.29,0,0,1,10.28,22.07c0,2.5,3.85,2.5,3.89,0A31,31,0,0,0,58,317.79Z"/><rect class="cls-7" x="84.96" y="603.53" width="15.34" height="21.79" rx="1.93" transform="translate(75.48 -6.71) rotate(6.99)"/><rect class="cls-7" x="35.29" y="604.5" width="15.34" height="21.79" rx="1.93" transform="translate(88.37 0.18) rotate(8.21)"/><path class="cls-8" d="M125.81,607.68,75.2,614.74l-.89-61.5a29.42,29.42,0,0,0-.58-5.46L57.91,469.27,91.72,451l16.93,88.72a24.23,24.23,0,0,0,.57,2.38l8.8,33.14Z"/><path class="cls-8" d="M71.27,615.55l-48.7-1.06,9.32-63.55a34.33,34.33,0,0,0,.36-5.73l-1.89-85.5,31.17,2,4.85,80.94c0,.85.06,1.7.15,2.54l2.79,35.63Z"/><polygon class="cls-8" points="95.88 482.87 34.77 490.79 30.23 458.94 91.33 451.02 95.88 482.87"/><path class="cls-1" d="M79,467.1,67.54,447.28V433.13a4.71,4.71,0,0,0-4.7-4.7H58a4.72,4.72,0,0,0-4.71,4.7V447.7l-11.2,19.4a7.74,7.74,0,0,0,6.71,11.61H72.28A7.74,7.74,0,0,0,79,467.1Z"/><path class="cls-2" d="M43.36,449.64l.1-1.1c-.22-3.11,3.08-5.91,7.35-6.22l3.42-.25c4.27-.31,8,2,8.18,5.08l.07,1c.23,3.1-3.08,5.9-7.35,6.21l-3.42.25C47.44,454.92,43.59,452.74,43.36,449.64Z"/><path class="cls-9" d="M51.24,440.49a51.75,51.75,0,0,1-26.56-3.77h0c-1.85-5.58,3.21-14.73,5.15-19a2.61,2.61,0,0,0-1.12-3.35,8.79,8.79,0,0,0,.23-1.2,58,58,0,0,0,.16-8.76,40.93,40.93,0,0,0,.18-6.84,55.79,55.79,0,0,1,5.93-3.45c2.81-1.4.34-5.61-2.45-4.21C15.35,398.64.06,417.65,0,437.86c-.08,27,36.59,21.87,53.05,16.95a.65.65,0,0,0,.48-.64l.15-11.25A2.45,2.45,0,0,0,51.24,440.49Z"/><rect class="cls-1" x="287.07" width="423.32" height="662.3"/><polygon class="cls-10" points="348.37 178.44 346.8 168.36 338.31 176.81 348.37 178.44"/><polygon class="cls-11" points="354.69 662.3 336.03 662.71 309.31 498.31 327.58 495.35 354.69 662.3"/><polygon class="cls-11" points="174.51 662.3 193.17 662.71 219.89 498.31 201.62 495.35 174.51 662.3"/><rect class="cls-12" x="189.12" y="482.11" width="151.94" height="22.4" rx="7.31"/><rect class="cls-13" x="275.86" y="452.57" width="15.34" height="21.79" rx="1.93" transform="translate(58.52 -31.07) rotate(6.99)"/><rect class="cls-13" x="226.19" y="453.54" width="15.34" height="21.79" rx="1.93" transform="translate(68.76 -28.65) rotate(8.21)"/><path class="cls-14" d="M312.16,456.72l-48.2,7-.85-61.5a30.37,30.37,0,0,0-.56-5.46L247.49,318.3l30.74-5.14,17.58,75.55q.22,1.2.54,2.37l8.39,33.15Z"/><path class="cls-14" d="M262.17,464.58l-48.7-1.05L222.79,400a33.17,33.17,0,0,0,.35-5.72l-1.88-83.55h31.17l4.85,80.94c0,.84.06,1.69.14,2.54l2.8,35.62Z"/><path class="cls-13" d="M154.93,292.23l-.44-1.3a7.08,7.08,0,0,1,3.39-9.38l2.81-1.31a7.07,7.07,0,0,1,9.38,3.39l.53,1.12a7.08,7.08,0,0,1-3.39,9.38l-2.81,1.32A7.11,7.11,0,0,1,154.93,292.23Z"/><path class="cls-15" d="M241.17,237.71c2.85-3.7-.82-10.54-6.74-8.77-28.15,8.4-40.79,39.52-69,47a5.72,5.72,0,0,0-3.91,5.73c.35,4.22,2.47,7.26,3.69,11.32,1.16,3.84,5.63,2.92,8.15,1.46a159.39,159.39,0,0,1,33-14.42c10.8-3.37,21.61-6.41,31.13-12.58a5,5,0,0,0,2.29-5.94,5.6,5.6,0,0,0,.91-2.31,77.9,77.9,0,0,0,.68-20.23A7.09,7.09,0,0,0,241.17,237.71Z"/><path class="cls-14" d="M256.73,486h-30c-2.46,0-4.46-2.37-4.46-5.29V473.9c0-3.32,2.55-5.82,5.3-5.19l30,6.82a5,5,0,0,1,3.6,4.67h0C261.43,483.31,259.37,486,256.73,486Z"/><path class="cls-14" d="M306.41,487h-30c-2.47,0-4.46-2.36-4.46-5.28v-6.82c0-3.32,2.55-5.82,5.29-5.2l30,6.82a5,5,0,0,1,3.6,4.67h0C311.11,484.28,309,487,306.41,487Z"/><rect class="cls-16" x="299.68" y="126.44" width="12.25" height="14.27" rx="2.23" transform="translate(-13.32 231.15) rotate(-40.6)"/><rect class="cls-17" x="318.91" y="129.28" width="12.66" height="50.65" transform="translate(-17.08 266.42) rotate(-43.51)"/><rect class="cls-13" x="318.71" y="154.21" width="15.34" height="17.2" rx="7.24" transform="translate(114.69 -134.21) rotate(28.01)"/><polygon class="cls-18" points="348.3 178.11 347.4 172.35 342.54 177.18 348.3 178.11"/><path class="cls-8" d="M65.83,637h-30c-2.47,0-4.46-2.37-4.46-5.29v-6.82c0-3.32,2.55-5.82,5.29-5.2l30,6.82a5,5,0,0,1,3.6,4.67h0C70.53,634.27,68.47,637,65.83,637Z"/><path class="cls-8" d="M115.51,638h-30C83,638,81,635.58,81,632.66v-6.82c0-3.32,2.55-5.82,5.3-5.19l30,6.82a5,5,0,0,1,3.59,4.67h0C120.21,635.25,118.15,638,115.51,638Z"/><path class="cls-3" d="M59.51,382.14c-8.88,4.61-20,2.45-28.27,8.49-4.85,2.63-9.09,6.24-10.76,10.68-1.83,4.86,0,9,1.89,13.52q3.51,8.55,7,17.09c2.35,5.72,11.78,3.22,9.39-2.59-.61-1.49-1.23-3-1.84-4.46a4,4,0,0,0,1.19-4.73A54.84,54.84,0,0,1,35,406.25c-.28-3.59.14-5.95,2.1-7.65a42.21,42.21,0,0,1,9.8-3.13,4.65,4.65,0,0,0,1.92-.74c5.31-.93,10.61-1.6,15.6-4.18C70,387.65,65.07,379.25,59.51,382.14Z"/><path class="cls-2" d="M66.64,333.7c7.23,16.44,4.16,41.24-10.18,40-17.22-1.51-29.12-3.1-36.35-19.54s-2.66-34.34,10.19-40S59.42,317.26,66.64,333.7Z"/><path class="cls-19" d="M75.85,461.66H45.19l-3.14,5.44a7.74,7.74,0,0,0,6.71,11.61H72.28A7.74,7.74,0,0,0,79,467.1Z"/><path class="cls-6" d="M31.6,308l1.16-.21a13.18,13.18,0,0,1,3.26-.19,6.41,6.41,0,0,1,4.87,2.49,6.7,6.7,0,0,1,1,2.17,7,7,0,0,1-.29,4.8c-.86,1.83-2.51,3-3.78,4.46a30.73,30.73,0,0,0-3.14,4.3,28.88,28.88,0,0,0-3.49,9.49,40.77,40.77,0,0,0-.46,10.29,65.44,65.44,0,0,0,1.76,10.58c.86,3.51,1.93,7,3.13,10.38s2.4,6.49,3.69,9.69l.57,1.41a6.83,6.83,0,0,0,.54,1.34c1.16,1.55,1.58,3.84.38,5.4a37,37,0,0,1-11.57,10.2,8.64,8.64,0,0,1-4.27.71,4.92,4.92,0,0,1-3.7-1.31,56.64,56.64,0,0,1-4.53-4.89,54.34,54.34,0,0,1-3.86-5.3,52.62,52.62,0,0,1-3.14-5.64,54.08,54.08,0,0,1-2.44-5.89,55.8,55.8,0,0,1-1.73-6.1,56.43,56.43,0,0,1-1.34-12.5,60,60,0,0,1,.39-6.27,54.2,54.2,0,0,1,1.1-6.19,55.24,55.24,0,0,1,1.79-6.05,53.53,53.53,0,0,1,2.5-5.83,52,52,0,0,1,3.2-5.56,53.12,53.12,0,0,1,3.9-5.21,54.72,54.72,0,0,1,4.6-4.79C24.58,311.1,27.68,308.72,31.6,308Z"/><path class="cls-4" d="M46.63,338.18A3.21,3.21,0,0,0,48.22,341a.74.74,0,0,0,.48.09.69.69,0,0,0,.43-.2,1.8,1.8,0,0,0,.39-.75,2.26,2.26,0,0,0,0-.82,3.21,3.21,0,0,0-.53-1.14,3,3,0,0,0-.42-.54,1.15,1.15,0,0,0-1-.33,1,1,0,0,0-.73.69.92.92,0,0,0,.4,1.06.75.75,0,0,0,.76-1.3h0l.15.12,0,0,.12.15v0l.08.18s0,0,0,0l0,.2v-.05l0,.2s0,0,0-.06l-.08.18,0-.07-.12.15.06-.05-.16.12.07,0-.18.08h.05l-.2,0h.05l-.19,0,.09,0-.18-.07.11.06-.15-.11a1.8,1.8,0,0,1,.19.2l-.12-.15a3.76,3.76,0,0,1,.5.81l-.08-.18a2.64,2.64,0,0,1,.14.48l0-.2a1.41,1.41,0,0,1,0,.29l0-.2A.79.79,0,0,1,48,340l.07-.18a1.28,1.28,0,0,1-.11.2l.11-.15,0,0,.91-.11-.29-.19.16.11a2.71,2.71,0,0,1-.42-.41l.12.15a2.84,2.84,0,0,1-.33-.56l.07.18a3,3,0,0,1-.17-.63l0,.2a3,3,0,0,1,0-.42.76.76,0,0,0-.75-.75.77.77,0,0,0-.75.75Z"/><path class="cls-4" d="M60.25,333.53a6.65,6.65,0,0,0,.49,1.81,6,6,0,0,0,.92,1.46.74.74,0,0,0,1.17-.15,3,3,0,0,0,.17-2.21,3.07,3.07,0,0,0-1.35-1.73.75.75,0,1,0-.76,1.29l.17.11c.11.07-.11-.09-.05,0l.08.07.13.13.07.07c.08.09,0,0,0,0s.14.21.2.33a.56.56,0,0,1,0,.08c0,.06,0,.14,0,0l.07.18a1.33,1.33,0,0,1,.05.19.58.58,0,0,0,0,.19s0-.19,0-.08a.45.45,0,0,1,0,.11.54.54,0,0,1,0,.18c0,.06,0,.13,0,.19s0-.19,0-.06,0,.06,0,.09,0,.13,0,.19a.36.36,0,0,1,0,.09c0,.13.08-.17,0,0l1.18-.15-.06-.07c0-.07,0-.05,0,0s-.09-.13-.11-.16a2.75,2.75,0,0,1-.19-.28,5.33,5.33,0,0,1-.32-.63c0-.05,0,0,0,.07l0-.09c0-.07,0-.13-.07-.19s-.07-.21-.1-.32a3.38,3.38,0,0,1-.08-.34,1.06,1.06,0,0,1,0-.19c0-.05,0-.28,0,0a.75.75,0,0,0-.75-.75.77.77,0,0,0-.53.22.75.75,0,0,0-.22.53Z"/><path class="cls-4" d="M56.66,358.31a21.6,21.6,0,0,0,3.09.4c1.07,0,2.08-.41,3.14-.53.37-.05.38-.65,0-.6-1.06.12-2.08.48-3.14.53a21.78,21.78,0,0,1-3.09-.4c-.39,0-.38.58,0,.6Z"/><path class="cls-20" d="M58.16,342.76l.68,4.24a1.28,1.28,0,0,0,1.85.95L63,346.78a1.3,1.3,0,0,0,.34-2.06l-3-3.07A1.29,1.29,0,0,0,58.16,342.76Z"/><line class="cls-21" x1="367.43" y1="115.42" x2="710.39" y2="115.42"/><line class="cls-21" x1="367.43" y1="188.66" x2="710.39" y2="188.66"/><line class="cls-21" x1="367.43" y1="261.9" x2="710.39" y2="261.9"/><line class="cls-21" x1="367.43" y1="335.14" x2="710.39" y2="335.14"/><line class="cls-21" x1="367.43" y1="408.39" x2="710.39" y2="408.39"/><line class="cls-21" x1="367.43" y1="481.63" x2="710.39" y2="481.63"/><path class="cls-22" d="M299.08,256.58a46,46,0,0,1,3.69-21.88l28.07-62.83-13.1-11.4-33.11,54.81c-3.5,5.79-8.83,9.34-14.67,9.75l-7.93.57a37,37,0,0,0-7-.88h0a37.86,37.86,0,0,0-14.62,2.41l-6.14.44c-4.45.32-5,2.38-7.13,8.09-7.54,7.32-12.65,17.66-14.57,29.06-5.11,30.32-36.76,117.36-36.76,117.36a195.06,195.06,0,0,1,30.49-16.23c16.06-6.72,35.4-11.34,43.28-13.71,13-3.89,66.8.71,66.8.71s-7.9-32.13-14.67-59.17Z"/><path class="cls-23" d="M293.87,236.54s-20.89-.63-31.44,2.53c-6.4,1.92-22.13,5.68-35.18,11.14-13.81,5.76-22.86.64-22.86.64s23.8-58.18,28-82.82c3.07-18.18,16.09-33.05,34.52-32.49h0c18.43.55,31.33,15.75,32.5,34.52C300.4,186.7,293.87,236.54,293.87,236.54Z"/></svg>