<?xml version="1.0" encoding="utf-8"?>
<!-- Generator: Adobe Illustrator 15.1.0, SVG Export Plug-In . SVG Version: 6.00 Build 0)  -->
<!DOCTYPE svg PUBLIC "-//W3C//DTD SVG 1.1//EN" "http://www.w3.org/Graphics/SVG/1.1/DTD/svg11.dtd">
<svg version="1.1" id="Layer_1" xmlns="http://www.w3.org/2000/svg" xmlns:xlink="http://www.w3.org/1999/xlink" x="0px" y="0px"
	 width="612px" height="792px" viewBox="0 0 612 792" enable-background="new 0 0 612 792" xml:space="preserve">
<rect x="71.146" y="200.39" fill="#FFFFFF" width="454.878" height="360.976"/>
<path fill="#FEDDC0" d="M292.034,410.652l1.006-1.31c3.349-3.235,2.805-9.279-1.205-13.43l-3.212-3.322
	c-4.011-4.151-10.029-4.9-13.379-1.668l-1.075,1.039c-3.347,3.236-2.806,9.278,1.206,13.43l3.211,3.323
	C282.596,412.866,288.685,413.888,292.034,410.652"/>
<path fill="#070707" d="M257.868,490.257h-15.136c-0.717,0-1.297-0.58-1.297-1.298v-12.006c0-0.718,0.58-1.298,1.297-1.298h15.136
	c0.717,0,1.297,0.58,1.297,1.298v12.006C259.165,489.677,258.585,490.257,257.868,490.257"/>
<path fill="#565655" d="M258.686,469.303c-1.16,0.362-2.338,0.902-3.44,1.102c-3.97,0.72-8.135,0.224-11.966-0.949
	c-10.438-3.196-24.764-11.015-26.354-23.046c-1.119-8.479,0.769-17.497,5.119-25.039c2.271-3.938,5.191-7.501,8.612-10.495
	c2.753-2.41,9.032-5.046,7.925-9.666c-0.61-2.548-3.667-3.882-6.251-3.449s-4.748,2.155-6.687,3.921
	c-9.107,8.294-16.167,19.246-18.125,31.408c-2.863,17.799,6.207,32.774,21.58,41.155c7.697,4.196,20.456,6.547,29.158,4.867
	C265.709,477.671,265.809,467.076,258.686,469.303"/>
<path fill="none" stroke="#565655" stroke-width="1.4" stroke-miterlimit="10" d="M258.686,469.303
	c-1.16,0.362-2.338,0.902-3.44,1.102c-3.97,0.72-8.135,0.224-11.966-0.949c-10.438-3.196-24.764-11.015-26.354-23.046
	c-1.119-8.479,0.769-17.497,5.119-25.039c2.271-3.938,5.191-7.501,8.612-10.495c2.753-2.41,9.032-5.046,7.925-9.666
	c-0.61-2.548-3.667-3.882-6.251-3.449s-4.748,2.155-6.687,3.921c-9.107,8.294-16.167,19.246-18.125,31.408
	c-2.863,17.799,6.207,32.774,21.58,41.155c7.697,4.196,20.456,6.547,29.158,4.867C265.709,477.671,265.809,467.076,258.686,469.303z
	"/>
<path fill="#D7AE82" d="M206.061,483.246l0.399-1.647c0.812-3.352,4.221-5.431,7.573-4.619l3.325,0.805
	c3.351,0.812,5.43,4.22,4.617,7.572l-0.398,1.648c-0.812,3.353-4.219,5.432-7.571,4.619l-3.324-0.806
	C207.327,490.007,205.25,486.6,206.061,483.246"/>
<path fill="#BFB8B2" d="M244.315,414.452l-9.899,1.421c-2.988,0.429-5.762-1.647-6.191-4.637l-2.195-15.307
	c-0.428-2.99,1.646-5.761,4.638-6.19l9.898-1.421c2.989-0.429,5.761,1.647,6.189,4.636l2.198,15.308
	C249.382,411.252,247.306,414.023,244.315,414.452"/>
<path fill="#B6B3AE" d="M266.864,443.123l-8.833,1.267c-1.875,0.27-3.612-1.032-3.882-2.906l-6.066-42.277
	c-0.269-1.874,1.032-3.612,2.906-3.882l8.834-1.267c1.874-0.269,3.612,1.033,3.881,2.907l6.067,42.276
	C270.039,441.115,268.738,442.854,266.864,443.123"/>
<path fill="#CB4727" d="M282.748,320.54c-0.924-7.805-10.973-4.484-10.058,3.269c1.102,9.318-5.167,17.36-11.071,22.757
	c-5.298,4.844,2.131,13.491,7.375,8.697c4.506-4.119,8.331-9.254,11.08-15.166c1.215-2.618,2.438-5.584,3.074-8.484
	C284.015,327.659,283.209,324.444,282.748,320.54"/>
<path fill="#4476BB" d="M182.539,497.577l-50.432-8.262c-6.794-1.113-11.44-7.582-10.326-14.375l14.239-86.933
	c3.385-20.661,23.059-34.797,43.72-31.413c20.662,3.384,34.798,23.06,31.414,43.721l-14.242,86.934
	C195.8,494.041,189.332,498.688,182.539,497.577"/>
<path fill="#C09D76" d="M183.858,385.893l-14.037-24.313c0,0,13.221-5.388,17.341-7.735c4.621-2.634,17.374-12.306,17.374-12.306
	l14.037,24.313c0,0-13.588,6.058-17.876,8.527C196.279,376.923,183.858,385.893,183.858,385.893"/>
<path fill="#D7AE82" d="M253.584,364.909c-20.814,13.409-54.795,15.347-55.734-3.736c-1.129-22.919-1.171-38.883,19.646-52.292
	c20.815-13.407,45.769-11.735,55.734,3.736C283.195,328.087,274.4,351.5,253.584,364.909"/>
<path fill="#4476BB" d="M198.896,375.365c-8.064,2.925-19.188-5.208-19.141-13.576c0.002-0.447-0.044-0.867-0.131-1.258
	c-0.048-1.407-0.265-2.761-1.585-3.64c-0.615-0.41-1.469-0.353-2.115,0.02c-2.967-0.69-6.575,0.932-6.599,4.878
	c-0.027,4.655,1.396,8.948,3.89,12.586c-2.363,1.716-3.505,5.194-0.815,7.84c5.299,5.213,10.514,11.69,18.569,11.806
	c4.489,0.062,5.972-4.572,4.462-7.683c2.152,0.062,4.268-0.2,6.237-0.916C207.931,383.151,205.228,373.069,198.896,375.365"/>
<path fill="#FFFFFF" d="M245.37,340.574c-0.828,0.232-1.497,0.959-1.654,1.805c0.665,0.267,1.307-0.406,1.709-0.999
	c0.105-0.152,0.213-0.334,0.158-0.511s-0.373-0.221-0.398-0.037"/>
<path fill="#010101" d="M244.953,339.066c-1.348,0.424-2.437,1.498-2.746,2.897c-0.186,0.842,0.25,1.668,1.093,1.924
	c1.476,0.449,2.923-0.631,3.583-1.9c0.453-0.871,0.329-2.051-0.596-2.572c-0.816-0.46-2.018-0.285-2.454,0.628
	c-0.365,0.761-0.21,1.688,0.561,2.139c0.684,0.4,1.774,0.206,2.142-0.56c0.011-0.024,0.022-0.049,0.034-0.074
	c-0.187,0.188-0.374,0.373-0.562,0.562c0.022-0.013,0.047-0.025,0.068-0.038l-0.789,0.214c-0.18-0.047-0.36-0.095-0.541-0.143
	c-0.187-0.188-0.373-0.374-0.561-0.562c0.015,0.025,0.029,0.051,0.047,0.076c-0.071-0.262-0.144-0.524-0.213-0.787
	c0.17-0.407,0.201-0.52,0.093-0.341c-0.04,0.066-0.083,0.129-0.129,0.19c0.123-0.159-0.074,0.068-0.121,0.116
	c-0.036,0.038-0.076,0.077-0.116,0.111c-0.081,0.075-0.08,0.069,0.006-0.014c0.121-0.011,0.245-0.104,0.38-0.063
	c0.363,0.644,0.729,1.284,1.094,1.926c0.016-0.095,0.04-0.187,0.069-0.276c-0.073,0.149-0.068,0.144,0.014-0.02
	c0.043-0.066,0.29-0.348,0.09-0.147c0.032-0.033,0.355-0.286,0.115-0.129c0.079-0.052,0.16-0.1,0.246-0.142
	c-0.157,0.059-0.147,0.06,0.025,0.002c0.806-0.255,1.322-1.088,1.093-1.926C246.66,339.365,245.763,338.812,244.953,339.066"/>
<g opacity="0.5">
	<g>
		<defs>
			<rect id="SVGID_1_" x="233.828" y="355.193" width="10.566" height="9.021"/>
		</defs>
		<clipPath id="SVGID_2_">
			<use xlink:href="#SVGID_1_"  overflow="visible"/>
		</clipPath>
		<path clip-path="url(#SVGID_2_)" fill="#B77F4A" d="M242.733,355.233l-7.872,1.879c-0.899,0.215-1.317,1.249-0.822,2.028
			l2.828,4.452c0.496,0.777,1.61,0.837,2.185,0.115l5.045-6.33C244.893,356.38,243.977,354.937,242.733,355.233"/>
	</g>
</g>
<path fill="#010101" d="M222.866,362.343c0.424,1.339-0.344,2.798,0.354,4.08c0.722,1.328,2.271,1.938,3.043,3.238
	c0.206,0.346,0.746,0.032,0.54-0.315c-0.694-1.169-1.939-1.761-2.742-2.822c-0.988-1.307-0.13-2.882-0.593-4.347
	C223.347,361.794,222.743,361.958,222.866,362.343"/>
<path fill="#4373B5" d="M210.179,475.437c-2.466-2.344-7.516-4.286-9.471-5.438c-4.444-2.623-9.681-5.134-13.566-8.556
	c-0.056-0.048-0.093-0.099-0.153-0.146c-7.098-5.539-13.554-12.286-17.495-20.467c-1.971-4.089-3.222-8.459-3.669-12.975
	c-0.522-5.221-0.492-10.482-3.07-15.223c-3.149-5.8-6.67-11.525-9.488-17.49c-2.691-5.693-4.797-11.72-6.989-17.618
	c-0.847-2.279-3.418-2.562-4.983-1.584c-0.637,0.188-1.237,0.576-1.708,1.242c-7.943,11.264-11.114,24.722-12.129,38.294
	c-1.014,13.549-1.049,28.226,5.453,40.526c5.792,10.959,16.189,21.321,27.963,25.61c6.162,2.242,12.893,3.274,19.22,5.198
	c8.125,2.47,16.811,5.721,25.423,4.696c2.347-0.279,3.347-2.508,3.886-4.512c0.6-2.226,1.197-4.45,1.797-6.675
	c0.221-0.823,0.445-1.667,0.371-2.518C211.495,476.981,210.97,476.188,210.179,475.437"/>
<path fill="#CB4727" d="M281.881,301.655c-3.723-11.827-12.872-22.39-25.573-24.452c-12.122-1.97-25.444,3.71-35.004,10.815
	c-6.072,4.512-11.222,10.076-15.212,16.385c-0.172,0.224-0.349,0.442-0.518,0.668c-0.246,0.33-0.421,0.697-0.544,1.082
	c-2.671,4.555-4.759,9.459-6.163,14.62c-0.162,0.599-0.121,1.133,0.056,1.588c-0.124,0.71,0.027,1.479,0.615,2.166
	c4.166,4.854,9.152-3.321,10.82-6.35c2.021-3.671,6.119-9.071,10.629-9.75c0.611-0.092,1.234-0.052,1.854-0.014
	c4.358,0.282,8.679,0.288,13.036,0.496c5.091,0.243,10.171,0.817,15.157,1.888c3.855,0.825,7.728,1.654,11.466,2.923
	c4.311,1.467,5.651,2.962,8.576,6.178c3.176,3.494,7.775,2.378,10.385-1.222C284.935,313.886,283.519,306.862,281.881,301.655"/>
<path fill="#CA4827" d="M245.979,271.478c-0.766-9.107-5.82-17.426-14.725-20.659c-9.459-3.434-19.689-0.016-25.924,7.629
	c-4.862,5.964-7.935,13.047-10.593,20.197c-5.343,14.366-11.028,29.017-9.861,44.634c0.096,1.271,0.25,2.593,0.947,3.661
	c2.261,3.455,8.136,3.461,9.775-0.563c0.375-0.917,0.48-1.916,0.617-2.898c1.627-11.667,6.185-23.502,12.267-33.54
	c2.253-3.715,4.186-7.464,8.336-9.37c5.881-2.7,11.482,1.162,17.363-0.508c0.805-0.229,1.516-0.587,2.132-1.035
	c2.363,0.459,4.861-0.431,5.541-2.778C244.197,276.085,246.235,274.533,245.979,271.478"/>
<path fill="#4476BB" d="M247.318,272.222c-2.47-1.304-6.215-0.428-9.033,1.427c-2.723,1.793-5.898,2.942-9.191,3.787
	c-3.447,0.884-5.672,3.919-5.06,5.808c0.718,2.217,4.047,2.628,7.505,1.741c5.618-1.442,10.653-3.878,15.197-6.87
	C249.545,276.267,249.439,273.342,247.318,272.222"/>
<path fill="#303030" d="M181.263,545.522l-64.981-10.42c0,0-3.429-25.233-2.086-32.33c1.268-6.688,7.579-26.15,7.579-26.15
	l69.724,13.978L181.263,545.522z"/>
<path fill="#B6B3AE" d="M260.522,397.689l-10.877,1.561c-1.875,0.269-3.613-1.033-3.882-2.907l-6.468-45.07
	c-0.269-1.876,1.032-3.613,2.907-3.882l10.876-1.561c1.874-0.269,3.613,1.032,3.882,2.906l6.469,45.072
	C263.698,395.683,262.397,397.421,260.522,397.689"/>
<path fill="#D1CCC7" d="M268.968,428.509l-17.047,2.446c-2.99,0.429-5.761-1.646-6.189-4.637l-5.889-41.032
	c-0.431-2.989,1.646-5.761,4.636-6.19l17.047-2.446c2.99-0.429,5.762,1.646,6.191,4.638l5.888,41.031
	C274.033,425.309,271.957,428.079,268.968,428.509"/>
<path fill="#565655" d="M273.964,427.792l-26.631,3.821c-0.71,0.103-1.367-0.39-1.469-1.1l-0.562-3.904
	c-0.102-0.709,0.392-1.367,1.101-1.469l26.631-3.822c0.71-0.102,1.367,0.391,1.47,1.101l0.561,3.905
	C275.165,427.032,274.673,427.69,273.964,427.792"/>
<path fill="#565655" d="M256.985,351.26l-16.682,2.395c-0.837,0.12-1.611-0.46-1.73-1.296l-0.495-3.447
	c-0.12-0.836,0.461-1.611,1.297-1.73l16.682-2.395c0.836-0.119,1.611,0.459,1.731,1.297l0.494,3.446
	C258.402,350.366,257.82,351.14,256.985,351.26"/>
<path fill="#070707" d="M277.684,470.44h-33.037c-0.718,0-1.298-0.58-1.298-1.298v-5.748c0-0.717,0.58-1.297,1.298-1.297h33.037
	c0.717,0,1.297,0.58,1.297,1.297v5.748C278.98,469.86,278.4,470.44,277.684,470.44"/>
<path fill="#565655" d="M267.509,494.429h-34.417c-2.304,0-4.172-1.868-4.172-4.172s1.868-4.172,4.172-4.172h34.417
	c2.304,0,4.172,1.868,4.172,4.172S269.812,494.429,267.509,494.429"/>
<path fill="none" stroke="#565655" stroke-width="1.4" stroke-miterlimit="10" d="M267.509,494.429h-34.417
	c-2.304,0-4.172-1.868-4.172-4.172s1.868-4.172,4.172-4.172h34.417c2.304,0,4.172,1.868,4.172,4.172
	S269.812,494.429,267.509,494.429z"/>
<path fill="#F9BB4C" d="M291.039,404.778c2.726-2.024,4.048-12.404,8.013-8.062c2.204,2.412,1.371,0.9,3.775,3.127
	c7.13,6.594,8.4,12.524,15.627,19.004c7.853,7.045,35.701-22.417,48.753-25.43c0.556-0.129,7.819-1.107,8.399-1.111
	c10.21-0.063,1.647,0.06,8.847-0.56c9.795-0.843,5.937-1.396,15.414-1.792c6.477-0.271,12.937,0.811,19.284,2.119
	c7.168,1.476,13.036,5.325,17.261,10.652c0.667,0.37,1.334,0.734,1.995,1.123c6.56,3.885,9.395,8.973,9.283,15.593l0.154-0.005
	l5.248,84.674l-93.544,3.62l-1.295-71.411c-4.297-9.3-28.894,21.895-43.7,14.498c-16.498-8.242-31.516-34.077-36.468-37.207"/>
<rect x="393.272" y="368.533" transform="matrix(-0.9914 0.1311 -0.1311 -0.9914 872.8132 713.0972)" fill="#F2CDAA" width="39.321" height="33.496"/>
<path fill="#232323" d="M374.108,300.841c7.694-11.807,16.839-24.496,34.881-24.043c11.397,0.286,8.505,14.778-2.867,14.492
	c-7.779-0.194-14.391,12.357-17.236,17.09c-4.084,6.791-7.235,14.984-1.858,21.509c6.225,7.558-8.065,16.864-14.316,9.278
	C363.034,327.424,365.928,313.39,374.108,300.841"/>
<path fill="#232323" d="M383.275,293.396c2.55-2.708,7.195,0.811,4.625,3.545c-8.943,9.506-12.874,21.798-10.909,34.717
	c0.564,3.71-5.21,4.474-5.773,0.764C369.043,318.127,373.357,303.941,383.275,293.396"/>
<polygon fill="#303030" points="359.558,539.576 451.695,539.396 452.178,497.179 360.038,497.358 "/>
<path fill="#FEDDC0" d="M430.877,485.97l-0.363-1.617c-0.271-4.646-5.723-8.144-12.113-7.769l-5.114,0.299
	c-6.391,0.372-11.396,4.481-11.124,9.129l0.087,1.493c0.273,4.646,5.722,8.145,12.113,7.77l5.113-0.299
	C425.866,494.603,431.147,490.615,430.877,485.97"/>
<path fill="#DFA942" d="M417.403,473.949c13.743-0.259,26.794-3.741,38.638-10.793c0.003-0.002,0.005-0.004,0.008-0.006
	c1.663-8.631-7.647-21.199-11.343-27.144c-1.222-1.959-0.42-4.054,0.996-5.18c-0.219-0.543-0.416-1.114-0.58-1.738
	c-1.076-4.124-1.514-8.574-1.961-12.948c-0.802-3.279-1.331-6.644-1.593-10.107c-3.085-1.501-6.247-2.834-9.478-3.95
	c-4.431-1.531-1.602-8.243,2.818-6.716c27.498,9.502,53.885,34.696,57.938,64.637c5.419,40.008-49.951,39.591-75.319,35.535
	c-0.438-0.071-0.774-0.419-0.839-0.861l-2.419-16.643C414.011,476.248,415.445,473.986,417.403,473.949"/>
<path fill="#F9BB4C" d="M394.099,392.046c14.062,5.096,30.126-0.275,43.579,7.052c7.697,2.948,14.689,7.473,18.042,13.724
	c3.67,6.846,1.717,13.352-0.151,20.412c-2.357,8.906-4.712,17.808-7.066,26.711c-2.366,8.938-16.831,7.073-14.431-1.996
	c0.613-2.326,1.23-4.654,1.848-6.98c-2.061-1.281-3.358-3.592-2.69-6.78c1.466-6.982,2.308-14.051,1.92-21.193
	c-0.294-5.385-1.384-8.801-4.607-10.933c-5.735-1.793-11.933-2.632-15.148-2.722c-1.177-0.032-2.173-0.292-2.996-0.717
	c-8.043-0.337-16.04-0.284-23.937-3.146C379.646,402.285,385.288,388.855,394.099,392.046"/>
<path fill="#FEDDC0" d="M373.96,317.515c-8.31,25.532-0.061,61.988,21.091,57.987c25.397-4.806,42.868-8.939,51.174-34.471
	c8.307-25.532-1.135-51.493-21.09-57.987C405.18,276.549,382.267,291.985,373.96,317.515"/>
<path fill="#232323" d="M420.512,273.466c-0.584,0-1.168,0.006-1.748,0.013c-1.615,0.015-3.255,0.139-4.854,0.441
	c-2.791,0.527-5.419,1.667-6.88,3.538c-0.602,0.77-0.98,1.605-1.188,2.448c-0.432,1.749-0.159,3.496,1.101,4.934
	c1.518,1.733,4.12,2.598,6.218,3.895c1.904,1.182,3.685,2.431,5.24,3.85c2.964,2.698,5.108,5.834,6.476,9.18
	c1.389,3.396,1.996,6.98,2.088,10.594c0.096,3.76-0.365,7.557-1.145,11.334c-0.789,3.818-1.913,7.62-3.221,11.4
	c-1.247,3.615-2.666,7.211-4.139,10.797c-0.216,0.525-0.434,1.049-0.65,1.574c-0.185,0.447-0.286,1.086-0.619,1.494
	c-1.503,1.844-1.809,4.296,0.187,5.688c5.307,3.705,11.343,6.585,18.547,8.328c2.019,0.489,4.297,0.175,6.431-0.104
	c2.135-0.278,3.833-0.804,5.295-2.089c2.177-1.909,4.201-3.899,6.058-5.962c1.83-2.026,3.494-4.12,4.985-6.265
	c1.468-2.112,2.766-4.275,3.886-6.471c1.108-2.173,2.045-4.38,2.804-6.606c0.749-2.209,1.327-4.436,1.724-6.668
	c0.396-2.221,0.617-4.446,0.662-6.663c0.041-2.209-0.089-4.408-0.396-6.583c-0.306-2.176-0.785-4.327-1.437-6.439
	c-0.652-2.116-1.478-4.194-2.471-6.22c-0.997-2.034-2.164-4.017-3.491-5.933c-1.34-1.929-2.844-3.79-4.505-5.572
	c-1.681-1.801-3.518-3.52-5.508-5.146c-2.017-1.647-4.187-3.199-6.496-4.644c-2.356-1.474-4.855-2.835-7.478-4.074
	C431.356,275.344,426.434,273.473,420.512,273.466"/>
<path fill="#010101" d="M409.22,320.724c0.307,1.738-1.334,3.575-4.269,4.877c-1.083,0.482-2.392,0.401-3.169,0.015
	c-2.271-1.128-0.707-3.317,1.297-4.731c1.04-0.734,2.802-1.245,4.297-0.945c1.574,0.316,2.026,1.311,0.758,2.131
	c-1.974,1.279-5.406,0.134-3.43-1.146c-0.106,0.112-0.215,0.224-0.321,0.337l0.078,0.59c0.301,0.103,0.604,0.206,0.907,0.308
	l1.215-0.16c-0.46,0.113-0.964,0.869-1.126,1.104c-0.273,0.388-0.395,0.622,0.11,0.872c-1.057,0.004-2.111,0.007-3.167,0.011
	c1.647-0.73,2.437-1.692,2.265-2.658C404.421,319.902,408.976,319.302,409.22,320.724"/>
<path fill="#010101" d="M381.85,316.766c0.881,1.501,1.252,3.15,1.243,4.882c-0.004,0.668-0.921,1.24-1.521,0.915
	c-2.068-1.118-3.079-3.466-2.274-5.721c0.484-1.363,2.572-0.544,2.089,0.813c-0.356,1.002,0.029,2.291,0.998,2.817
	c-0.507,0.306-1.013,0.612-1.52,0.917c0.008-1.344-0.404-2.597-1.079-3.748c-0.309-0.526,0.09-1.249,0.595-1.47
	C380.993,315.902,381.546,316.247,381.85,316.766"/>
<path fill="#010101" d="M393.263,353.199c-1.643,0.396-3.163,1.128-4.871,1.222c-1.5,0.084-3.004-0.19-4.504-0.202
	c-0.575-0.002-0.448-0.89,0.123-0.889c1.604,0.012,3.282,0.373,4.883,0.155c1.458-0.196,2.826-0.832,4.252-1.175
	C393.705,352.175,393.82,353.066,393.263,353.199"/>
<path fill="#FAB07F" d="M387.995,330.436l-0.176,6.425c-0.034,1.303-1.328,2.197-2.562,1.767l-3.686-1.286
	c-1.23-0.43-1.688-1.933-0.905-2.976l3.861-5.139C385.656,327.725,388.044,328.562,387.995,330.436"/>
<path fill="#D2D0CE" d="M418.61,545.52H150.574c-8.803,0-16.004-5.767-16.004-12.814v-25.629c0-7.049,7.201-12.815,16.004-12.815
	H418.61c8.803,0,16.004,5.767,16.004,12.815v25.629C434.614,539.753,427.413,545.52,418.61,545.52"/>
</svg>
